<?xml version="1.0" encoding="iso-8859-1"?>
<!-- Generator: Adobe Illustrator 24.1.3, SVG Export Plug-In . SVG Version: 6.00 Build 0)  -->
<svg version="1.1" id="Layer_1" xmlns="http://www.w3.org/2000/svg" xmlns:xlink="http://www.w3.org/1999/xlink" x="0px" y="0px"
	 viewBox="0 0 455.628 255.753" style="enable-background:new 0 0 455.628 255.753;" xml:space="preserve">
<path style="fill:#FFFFFF;" d="M594.014,108.262C578,64.793,547.911,27.926,508.533,3.526
	c-43.657-24.916-93.381-37.203-143.619-35.489c-39.111-0.637-77.985,6.189-114.539,20.112c-7.976,3.177-15.49,6.63-22.614,10.318
	c-7.089-3.666-14.559-7.098-22.505-10.257c-36.559-13.917-75.435-20.735-114.548-20.09C40.472-33.593-9.252-21.306-52.91,3.608
	c-39.379,24.401-69.469,61.267-85.486,104.736c-0.886,3.069-1.459,6.22-1.71,9.405c-0.661,6.534,3.8,12.482,10.257,13.676
	l109.423,23.938c2.804,0.632,5.674,0.923,8.548,0.866c2.93,0.158,5.817-0.754,8.124-2.566c2.459-2.406,4.356-5.324,5.557-8.548
	c7.24-19.371,19.839-36.283,36.329-48.763C52.79,85.297,70.641,79.301,88.999,79.265c14.195-0.398,28.091,4.128,39.328,12.811
	c10.339,7.574,16.389,19.67,16.247,32.486l0.143,0.325c0.772,15.336,4.726,30.343,11.612,44.067
	c7.377,14.558,17.046,27.835,28.638,39.324c14.189,13.429,29.175,25.99,44.876,37.614c17.681,14.251,31.644,26.08,41.89,35.489
	c10.456,9.668,19.136,21.093,25.647,33.758c7.056,14.043,10.578,29.596,10.262,45.309c-0.074,5.544,2.263,10.847,6.405,14.533
	c4.008,3.881,9.382,6.031,14.962,5.986h89.762c6.086,0.304,12.007-2.034,16.243-6.414c4.29-5.124,6.435-11.708,5.986-18.376
	c0.44-23.812-3.771-47.481-12.395-69.68c-7.101-18.268-17.056-35.292-29.495-50.438c-11.391-13.388-25.923-28.632-43.595-45.733
	c-12.19-11.347-23.612-23.492-34.191-36.355c-6.685-8.372-10.307-18.777-10.266-29.491c-0.141-12.815,5.908-24.912,16.247-32.486
	c11.234-8.686,25.128-13.217,39.324-12.824c18.36,0.038,36.21,6.038,50.866,17.095c16.482,12.472,29.081,29.371,36.329,48.728
	c1.198,3.225,3.096,6.144,5.557,8.548c2.306,1.815,5.194,2.727,8.124,2.566c2.874,0.055,5.743-0.236,8.548-0.866L585.475,131.3
	c6.459-1.193,10.921-7.142,10.257-13.676C595.476,114.453,594.9,111.317,594.014,108.262z"/>
</svg>
