<svg id="Layer_6" data-name="Layer 6" xmlns="http://www.w3.org/2000/svg" viewBox="0 0 49.5686 14.1549"><defs><style>.cls-1{fill:#d1a9cf;}.cls-2{fill:#20554e;}</style></defs><rect class="cls-1" x="20.0771" width="1.327" height="14.1549" rx="0.1146"/><path class="cls-1" d="M24.5625,2.0545H27.79c.0715,0,.1078.0424.1078.1262l-.0061.6929a.14.14,0,0,1-.1554.1609H25.9432c-.0922,0-.1374.038-.1374.114V3.657a.1344.1344,0,0,0,.03.0928.1024.1024,0,0,0,.0776.0324h1.0762c.0833,0,.1252.04.1252.12v.7409c0,.0682-.0358.1017-.1073.1017H25.9013a.096.096,0,0,0-.0687.0246.0756.0756,0,0,0-.0268.0592v.5979a.1058.1058,0,0,0,.0145.0659.075.075,0,0,0,.057.0179H27.82c.0872,0,.1313.038.1313.1129v.7353a.13.13,0,0,1-.0357.0961.1483.1483,0,0,1-.1079.0358H24.61a.1776.1776,0,0,1-.1257-.0358.1561.1561,0,0,1-.0358-.114V2.1919Q24.4485,2.0545,24.5625,2.0545Z" transform="translate(-0.152 -0.1014)"/><path class="cls-1" d="M30.7364,3.3553a.1122.1122,0,0,1,.03.08.1973.1973,0,0,1-.0123.0593L29.5886,6.34a.237.237,0,0,1-.08.114.2449.2449,0,0,1-.1408.0358h-.5616a.2415.2415,0,0,1-.14-.0358.234.234,0,0,1-.0811-.114L27.4251,3.495a.1522.1522,0,0,1-.0062-.047.13.13,0,0,1,.033-.0905.1132.1132,0,0,1,.0866-.0357h1.01a.1484.1484,0,0,1,.0955.0335.1729.1729,0,0,1,.06.086L29.23,4.8226q.0185.0537.0419.0537c.0162,0,.0319-.02.0481-.06l.5079-1.3746a.17.17,0,0,1,.1553-.1195h.6694A.1062.1062,0,0,1,30.7364,3.3553Z" transform="translate(-0.152 -0.1014)"/><path class="cls-1" d="M31.8992,5.6228a.6809.6809,0,0,0,.4453.1374.693.693,0,0,0,.3107-.0737,1.4508,1.4508,0,0,0,.3408-.26.07.07,0,0,1,.0481-.0235.2733.2733,0,0,1,.0777.0179l.5436.22a.0715.0715,0,0,1,.0537.0726.1126.1126,0,0,1-.03.0715,1.8063,1.8063,0,0,1-.6488.6,1.9576,1.9576,0,0,1-.8577.1643,1.8127,1.8127,0,0,1-.8577-.2023A1.5245,1.5245,0,0,1,30.4978,4.96a1.7046,1.7046,0,0,1,.2268-.8818,1.6275,1.6275,0,0,1,.61-.6012,1.6594,1.6594,0,0,1,.8247-.2146,1.6962,1.6962,0,0,1,.84.2034,1.4372,1.4372,0,0,1,.5772.5878,1.9014,1.9014,0,0,1,.209.9175.2492.2492,0,0,1-.0179.114c-.0117.02-.0419.0324-.0894.0358h-1.859c-.06,0-.09.0346-.09.1017A.4839.4839,0,0,0,31.8992,5.6228Zm.6247-1.1176a.1493.1493,0,0,0,.08-.0145c.014-.01.0213-.0335.0213-.0693a.53.53,0,0,0-.1079-.304.3477.3477,0,0,0-.3045-.1553.4546.4546,0,0,0-.3347.1375.524.524,0,0,0-.1319.4Z" transform="translate(-0.152 -0.1014)"/><path class="cls-1" d="M34.0331,6.4542a.1642.1642,0,0,1-.0324-.114V3.4592c0-.0916.0374-.1374.1134-.1374h.9326a.0993.0993,0,0,1,.0777.0335.1225.1225,0,0,1,.03.086v.3353c0,.0358.014.0536.0419.0536a.083.083,0,0,0,.06-.0357,1.2168,1.2168,0,0,1,.4007-.3766.9146.9146,0,0,1,.466-.1554c.1475,0,.2212.0391.2212.12v.9086a.0994.0994,0,0,1-.0329.0838.1056.1056,0,0,1-.0866.0112A2.0794,2.0794,0,0,0,35.71,4.32a.5569.5569,0,0,0-.3554.1263.3555.3555,0,0,0-.1587.2805v1.59a.1637.1637,0,0,1-.048.1341.2361.2361,0,0,1-.1492.0391H34.156A.1672.1672,0,0,1,34.0331,6.4542Z" transform="translate(-0.152 -0.1014)"/><path class="cls-1" d="M36.7705,7.4522a.1009.1009,0,0,1-.0687-.1073v-.61a.1026.1026,0,0,1,.0391-.0771.1832.1832,0,0,1,.1285-.0357h.4242a.5017.5017,0,0,0,.2872-.0783.2191.2191,0,0,0,.1134-.1788.1886.1886,0,0,0-.0123-.06l-1.16-2.8095a.1876.1876,0,0,1-.0117-.0537.1091.1091,0,0,1,.0358-.086.1256.1256,0,0,1,.0894-.0335h1.01a.1487.1487,0,0,1,.0956.0335.1741.1741,0,0,1,.06.086l.5085,1.435c.0117.04.0273.0592.0475.0592s.038-.019.0536-.0592l.5141-1.435a.1707.1707,0,0,1,.1559-.1195h.6694a.1047.1047,0,0,1,.0832.0335.1122.1122,0,0,1,.03.08.1969.1969,0,0,1-.0117.0593l-1.1656,2.81a3.0083,3.0083,0,0,1-.4158.75,1.0228,1.0228,0,0,1-.4839.3353,2.5957,2.5957,0,0,1-.75.0872A.9655.9655,0,0,1,36.7705,7.4522Z" transform="translate(-0.152 -0.1014)"/><path class="cls-1" d="M41.9017,6.4576a.1259.1259,0,0,1-.0413-.1051v-.114a.0494.0494,0,0,0-.0123-.0357.0331.0331,0,0,0-.024-.0112.117.117,0,0,0-.0537.0235,1.2894,1.2894,0,0,1-.3794.2537,1.1926,1.1926,0,0,1-.4576.08,1.0417,1.0417,0,0,1-.87-.4213,1.943,1.943,0,0,1-.3257-1.21,2.0574,2.0574,0,0,1,.1732-.8639,1.427,1.427,0,0,1,.4632-.5855,1.0477,1.0477,0,0,1,.6186-.2057,1.07,1.07,0,0,1,.3917.0682,1.0339,1.0339,0,0,1,.35.2425.1284.1284,0,0,0,.0659.03c.0319,0,.0475-.0268.0475-.0783V2.1807c0-.0838.0358-.1262.1078-.1262h.9684a.1032.1032,0,0,1,.0833.0357.1555.1555,0,0,1,.03.1017V6.34a.154.154,0,0,1-.0357.114.178.178,0,0,1-.1258.0358H42.01A.1735.1735,0,0,1,41.9017,6.4576Zm-.2536-2.4a.4418.4418,0,0,0-.2241-.0536.39.39,0,0,0-.3526.2089,1.4352,1.4352,0,0,0-.1257.7,1.5324,1.5324,0,0,0,.12.7085.3874.3874,0,0,0,.3587.2124.4233.4233,0,0,0,.2989-.1107.37.37,0,0,0,.1191-.2838V4.23A.7956.7956,0,0,0,41.6481,4.0571Z" transform="translate(-0.152 -0.1014)"/><path class="cls-1" d="M44.2151,6.5492a.974.974,0,0,1-.6963-.2447.8234.8234,0,0,1-.26-.627.9236.9236,0,0,1,.2241-.6135,1.4508,1.4508,0,0,1,.6392-.4124,2.9341,2.9341,0,0,1,.9717-.1464h.0414c.06,0,.09-.0279.09-.0838V4.32a.3091.3091,0,0,0-.3526-.3464.5762.5762,0,0,0-.2693.0659.4576.4576,0,0,0-.1972.2157.122.122,0,0,1-.0386.0559.0963.0963,0,0,1-.057.0156.2485.2485,0,0,1-.0654-.0067l-.7834-.1553a.071.071,0,0,1-.0653-.0771.3945.3945,0,0,1,.0234-.114q.2516-.7108,1.5065-.7108A1.8188,1.8188,0,0,1,46.035,3.52a.8738.8738,0,0,1,.3257.7286V6.3291a.2159.2159,0,0,1-.0268.1251.1345.1345,0,0,1-.1106.0358h-.8186A.1129.1129,0,0,1,45.3,6.4363a.4456.4456,0,0,1-.0509-.1553l-.0061-.0425c-.0039-.0391-.02-.0592-.0481-.0592a.1889.1889,0,0,0-.1134.0592A1.3032,1.3032,0,0,1,44.2151,6.5492Zm.9923-1.4818a.0872.0872,0,0,0-.072-.0235h-.0235a.9275.9275,0,0,0-.2783.0536.8612.8612,0,0,0-.29.1587.3239.3239,0,0,0-.1251.2593.2554.2554,0,0,0,.0894.2034.3739.3739,0,0,0,.2514.0782.4984.4984,0,0,0,.3286-.114.3048.3048,0,0,0,.1374-.2157V5.1512A.1446.1446,0,0,0,45.2074,5.0674Z" transform="translate(-0.152 -0.1014)"/><path class="cls-1" d="M46.6273,7.4522a.101.101,0,0,1-.0688-.1073v-.61a.1024.1024,0,0,1,.0392-.0771.1831.1831,0,0,1,.1285-.0357H47.15a.5015.5015,0,0,0,.2872-.0783.2191.2191,0,0,0,.1134-.1788.1886.1886,0,0,0-.0123-.06L46.3792,3.495a.1886.1886,0,0,1-.0118-.0537.1094.1094,0,0,1,.0358-.086.1258.1258,0,0,1,.0894-.0335h1.01a.1484.1484,0,0,1,.0955.0335.1729.1729,0,0,1,.06.086l.5085,1.435c.0117.04.0274.0592.0475.0592s.038-.019.0536-.0592l.5141-1.435a.1707.1707,0,0,1,.1559-.1195h.6694a.1049.1049,0,0,1,.0833.0335.1122.1122,0,0,1,.03.08.1969.1969,0,0,1-.0117.0593l-1.1656,2.81a3.0117,3.0117,0,0,1-.4157.75,1.0237,1.0237,0,0,1-.4839.3353,2.5962,2.5962,0,0,1-.75.0872A.9645.9645,0,0,1,46.6273,7.4522Z" transform="translate(-0.152 -0.1014)"/><path class="cls-2" d="M30.6861,7.2108a.1581.1581,0,0,1,.0508.1229.3038.3038,0,0,1-.0123.0716l-1.2131,4.0466a.2467.2467,0,0,1-.0776.114.23.23,0,0,1-.1375.0357h-.8247a.1989.1989,0,0,1-.2157-.15l-.6214-2.1032c-.0117-.0526-.0262-.0783-.0419-.0783-.0117,0-.03.03-.0536.0894l-.6158,2.0921a.2054.2054,0,0,1-.0749.114.2423.2423,0,0,1-.14.0357h-.8549a.23.23,0,0,1-.1375-.0357.2461.2461,0,0,1-.0777-.114L24.4189,7.4053a.3038.3038,0,0,1-.0123-.0716.1581.1581,0,0,1,.0508-.1229.2106.2106,0,0,1,.1409-.0447h.9862a.2266.2266,0,0,1,.1313.03.1636.1636,0,0,1,.06.0961L26.4092,9.51c.0118.048.0257.0715.0419.0715.0118,0,.0218-.0156.03-.048l.628-2.2407c.02-.0838.0833-.1263.1911-.1263h.8371a.2281.2281,0,0,1,.1313.03.1666.1666,0,0,1,.06.0961l.6576,2.2708a.0561.0561,0,0,0,.0358.0425c.0156.0034.0257-.0067.03-.03l.61-2.2831c.02-.0838.0838-.1263.1917-.1263h.6934A.21.21,0,0,1,30.6861,7.2108Z" transform="translate(-0.152 -0.1014)"/><path class="cls-2" d="M30.9459,11.5692a.1579.1579,0,0,1-.0358-.1173V7.3036a.1555.1555,0,0,1,.03-.1017.1033.1033,0,0,1,.0838-.0358H31.98c.0715,0,.1078.0425.1078.1263V8.78c0,.0324.0095.0481.03.0481a.07.07,0,0,0,.0481-.0235,1.6612,1.6612,0,0,1,.475-.3319,1.2074,1.2074,0,0,1,.4811-.0983.9011.9011,0,0,1,.6873.257,1.0129,1.0129,0,0,1,.2453.7286v2.063a.1581.1581,0,0,1-.1794.1788h-.8784a.1448.1448,0,0,1-.1078-.0324.1758.1758,0,0,1-.03-.1173V9.504a.2734.2734,0,0,0-.0838-.21.3231.3231,0,0,0-.2274-.0771.4984.4984,0,0,0-.442.2984v1.9132a.1706.1706,0,0,1-.0447.1341.2359.2359,0,0,1-.1525.0391h-.8432A.1786.1786,0,0,1,30.9459,11.5692Z" transform="translate(-0.152 -0.1014)"/><path class="cls-2" d="M34.3321,12.5638a.1007.1007,0,0,1-.0688-.1072v-.61a.1023.1023,0,0,1,.0391-.0771.1835.1835,0,0,1,.1286-.0358h.4241a.5017.5017,0,0,0,.2872-.0782.2193.2193,0,0,0,.1134-.1788.1886.1886,0,0,0-.0123-.06L34.084,8.6066a.1846.1846,0,0,1-.0118-.0536.11.11,0,0,1,.0358-.0861.126.126,0,0,1,.0894-.0335h1.01a.1489.1489,0,0,1,.0955.0335.1738.1738,0,0,1,.06.0861l.5085,1.4349c.0117.04.0274.0592.0475.0592s.038-.019.0536-.0592l.5141-1.4349a.1706.1706,0,0,1,.1559-.12h.6694a.1049.1049,0,0,1,.0832.0335.1122.1122,0,0,1,.03.08.1969.1969,0,0,1-.0117.0592l-1.1656,2.81a3.0127,3.0127,0,0,1-.4157.75,1.0245,1.0245,0,0,1-.4839.3353,2.5969,2.5969,0,0,1-.7505.0871A.96.96,0,0,1,34.3321,12.5638Z" transform="translate(-0.152 -0.1014)"/><path class="cls-2" d="M17.1089,3.34A4.7974,4.7974,0,0,0,15.1343.9208,6.2618,6.2618,0,0,0,11.817.1014a7.11,7.11,0,0,0-2.646.464c-.1842.0734-.3578.1532-.5223.2384C8.485.7191,8.3124.64,8.1293.5669A7.1068,7.1068,0,0,0,5.4834.1029,6.2618,6.2618,0,0,0,2.1661.9223,4.7961,4.7961,0,0,0,.1915,3.3412a1.0908,1.0908,0,0,0-.04.2172.2915.2915,0,0,0,.2369.3159l2.5275.5529a.8228.8228,0,0,0,.1975.02.2786.2786,0,0,0,.1875-.0593A.5392.5392,0,0,0,3.43,4.19,2.519,2.519,0,0,1,4.269,3.0647,1.9573,1.9573,0,0,1,5.4439,2.67a1.4208,1.4208,0,0,1,.9083.2962.9174.9174,0,0,1,.3752.75l.0034.0074A2.5541,2.5541,0,0,0,6.999,4.7417,3.517,3.517,0,0,0,7.66,5.65a11.2485,11.2485,0,0,0,1.0367.8689q.6124.4936.9676.8194a2.814,2.814,0,0,1,.5924.78,2.2312,2.2312,0,0,1,.237,1.0466.4412.4412,0,0,0,.148.3356.4908.4908,0,0,0,.3456.1383h2.0732a.4881.4881,0,0,0,.3752-.1482.5982.5982,0,0,0,.1383-.4244,4.23,4.23,0,0,0-.2863-1.6094,4.2774,4.2774,0,0,0-.6813-1.165q-.3946-.4638-1.007-1.0564a8.6672,8.6672,0,0,1-.79-.8392,1.0854,1.0854,0,0,1-.2371-.6812.9172.9172,0,0,1,.3753-.75,1.42,1.42,0,0,1,.9083-.2963,1.9579,1.9579,0,0,1,1.1749.395,2.5178,2.5178,0,0,1,.8391,1.1255.5383.5383,0,0,0,.1284.1974.2786.2786,0,0,0,.1876.0593.8285.8285,0,0,0,.1975-.02l2.5274-.553a.2914.2914,0,0,0,.237-.3159A1.0991,1.0991,0,0,0,17.1089,3.34Z" transform="translate(-0.152 -0.1014)"/><circle class="cls-1" cx="11.918" cy="12.6145" r="1.5404"/></svg>