<svg id="Layer_7" data-name="Layer 7" xmlns="http://www.w3.org/2000/svg" viewBox="0 0 48.9093 13.9289"><defs><style>.cls-1{fill:#fff;}.cls-2{fill:#fedb26;}</style></defs><rect class="cls-1" x="19.7566" width="1.3059" height="13.9289" rx="0.1146"/><path class="cls-2" d="M17.4526,3.3633A4.72,4.72,0,0,0,15.51.983,6.1614,6.1614,0,0,0,12.2452.1767,6.995,6.995,0,0,0,9.6415.6333C9.46.7055,9.2894.784,9.1275.8678,8.9664.7845,8.7966.7065,8.6164.6347A6.995,6.995,0,0,0,6.0127.1781,6.1614,6.1614,0,0,0,2.7484.9844a4.72,4.72,0,0,0-1.9431,2.38,1.0819,1.0819,0,0,0-.0389.2137A.2868.2868,0,0,0,1,3.8893l2.4871.5441a.8135.8135,0,0,0,.1943.0195.2744.2744,0,0,0,.1846-.0584A.5283.5283,0,0,0,3.9919,4.2a2.4784,2.4784,0,0,1,.8258-1.1075A1.9257,1.9257,0,0,1,5.9738,2.704a1.3986,1.3986,0,0,1,.8939.2915.9029.9029,0,0,1,.3692.7384l.0033.0073a2.5136,2.5136,0,0,0,.2639,1.0016,3.4613,3.4613,0,0,0,.6509.8939,11.0458,11.0458,0,0,0,1.02.855q.6026.4859.9521.8063a2.7708,2.7708,0,0,1,.583.7675,2.1967,2.1967,0,0,1,.2331,1.03.4339.4339,0,0,0,.1457.33.4827.4827,0,0,0,.34.1361h2.04a.48.48,0,0,0,.3692-.1458.5888.5888,0,0,0,.136-.4177,4.1608,4.1608,0,0,0-.2817-1.5836,4.2079,4.2079,0,0,0-.67-1.1465q-.3883-.4563-.9909-1.0395a8.5357,8.5357,0,0,1-.7772-.8258,1.0679,1.0679,0,0,1-.2333-.67.9028.9028,0,0,1,.3693-.7384,1.3975,1.3975,0,0,1,.8938-.2915,1.9255,1.9255,0,0,1,1.1561.3887,2.4784,2.4784,0,0,1,.8258,1.1075.53.53,0,0,0,.1263.1943.2744.2744,0,0,0,.1846.0583.8141.8141,0,0,0,.1943-.0194l2.4871-.5441a.2869.2869,0,0,0,.2332-.3109A1.0819,1.0819,0,0,0,17.4526,3.3633Z" transform="translate(-0.7664 -0.1767)"/><circle class="cls-1" cx="11.7278" cy="12.4131" r="1.5158"/><path class="cls-1" d="M24.9191,1.9582h3.176c.07,0,.1061.0418.1061.1243l-.0061.6818a.1377.1377,0,0,1-.1528.1584H26.2778c-.0907,0-.1353.0373-.1353.1121v.5a.132.132,0,0,0,.0292.0913.1007.1007,0,0,0,.0764.0319h1.059c.082,0,.1232.04.1232.1176v.7291c0,.0671-.0352.1-.1056.1H26.2366a.0947.0947,0,0,0-.0677.0242.0747.0747,0,0,0-.0264.0583V5.276a.1045.1045,0,0,0,.0143.0649.0741.0741,0,0,0,.0561.0176h1.9119c.0857,0,.1292.0374.1292.1111v.7236a.1287.1287,0,0,1-.0352.0946.1465.1465,0,0,1-.1061.0351H24.9659a.1757.1757,0,0,1-.1238-.0351.1544.1544,0,0,1-.0351-.1122V2.0935Q24.807,1.9582,24.9191,1.9582Z" transform="translate(-0.7664 -0.1767)"/><path class="cls-1" d="M30.9944,3.2383a.11.11,0,0,1,.03.0791.1963.1963,0,0,1-.0121.0583l-1.1469,2.8a.234.234,0,0,1-.0792.1122.2424.2424,0,0,1-.1386.0351h-.5526a.2389.2389,0,0,1-.138-.0351.2313.2313,0,0,1-.08-.1122l-1.141-2.8A.1509.1509,0,0,1,27.73,3.33a.1279.1279,0,0,1,.0324-.089.1116.1116,0,0,1,.0852-.0352h.9942a.1463.1463,0,0,1,.094.033.17.17,0,0,1,.0588.0846l.5174,1.3593q.0181.0528.0413.0528c.0159,0,.0313-.02.0473-.0594l.5-1.3527a.1674.1674,0,0,1,.1528-.1176h.6588A.1042.1042,0,0,1,30.9944,3.2383Z" transform="translate(-0.7664 -0.1767)"/><path class="cls-1" d="M32.1387,5.47a.67.67,0,0,0,.4382.1352.6818.6818,0,0,0,.3057-.0725,1.4251,1.4251,0,0,0,.3355-.2563.0686.0686,0,0,1,.0472-.0231.2685.2685,0,0,1,.0765.0176l.535.2167a.07.07,0,0,1,.0528.0714.111.111,0,0,1-.0292.07,1.7779,1.7779,0,0,1-.6384.5906,1.9284,1.9284,0,0,1-.844.1616,1.7856,1.7856,0,0,1-.844-.199A1.5006,1.5006,0,0,1,30.76,4.8174a1.6766,1.6766,0,0,1,.2232-.8676,1.6005,1.6005,0,0,1,.6-.5917,1.6345,1.6345,0,0,1,.8116-.2111,1.6693,1.6693,0,0,1,.8264.2,1.4155,1.4155,0,0,1,.568.5785,1.8712,1.8712,0,0,1,.2056.9028.2473.2473,0,0,1-.0175.1122c-.0116.02-.0413.0319-.088.0352H32.06c-.0588,0-.0885.0341-.0885.1A.4763.4763,0,0,0,32.1387,5.47Zm.6147-1.1a.1473.1473,0,0,0,.0792-.0143c.0138-.01.0209-.033.0209-.0682a.521.521,0,0,0-.1061-.2991.3422.3422,0,0,0-.3-.1529.4477.4477,0,0,0-.3294.1353.5155.5155,0,0,0-.13.3937Z" transform="translate(-0.7664 -0.1767)"/><path class="cls-1" d="M34.2386,6.2878a.1616.1616,0,0,1-.0319-.1122V3.3405c0-.09.0368-.1352.1116-.1352h.9177a.0976.0976,0,0,1,.0764.033.1206.1206,0,0,1,.0292.0846v.33q0,.0527.0412.0527a.0818.0818,0,0,0,.0589-.0351A1.196,1.196,0,0,1,35.8359,3.3a.9008.9008,0,0,1,.4586-.1529c.1451,0,.2177.0385.2177.1177v.894a.0979.0979,0,0,1-.0324.0825.1036.1036,0,0,1-.0852.011,2.0458,2.0458,0,0,0-.5059-.0649.5477.5477,0,0,0-.35.1243.35.35,0,0,0-.1562.276V6.1525a.1609.1609,0,0,1-.0473.132.2325.2325,0,0,1-.1468.0384H34.36A.1649.1649,0,0,1,34.2386,6.2878Z" transform="translate(-0.7664 -0.1767)"/><path class="cls-1" d="M36.9323,7.27a.0992.0992,0,0,1-.0676-.1056v-.6a.1005.1005,0,0,1,.0385-.0759.18.18,0,0,1,.1264-.0352h.4174a.4934.4934,0,0,0,.2826-.077A.2156.2156,0,0,0,37.8412,6.2a.1846.1846,0,0,0-.0121-.0594L36.6882,3.3757a.1842.1842,0,0,1-.0116-.0528.1077.1077,0,0,1,.0352-.0846.1241.1241,0,0,1,.088-.033h.9941a.1466.1466,0,0,1,.0941.033.1718.1718,0,0,1,.0588.0846l.5,1.4121c.0115.04.0269.0583.0467.0583s.0374-.0187.0528-.0583l.5058-1.4121a.1682.1682,0,0,1,.1535-.1176h.6587a.1032.1032,0,0,1,.0819.033.11.11,0,0,1,.03.0791.1959.1959,0,0,1-.0115.0583L38.8178,6.14a2.9671,2.9671,0,0,1-.4091.7379,1.007,1.007,0,0,1-.4762.33,2.5541,2.5541,0,0,1-.7385.0858A.9474.9474,0,0,1,36.9323,7.27Z" transform="translate(-0.7664 -0.1767)"/><path class="cls-1" d="M41.9816,6.2911a.1238.1238,0,0,1-.0407-.1034V6.0755a.0486.0486,0,0,0-.0121-.0352.0326.0326,0,0,0-.0236-.011.115.115,0,0,0-.0528.0231,1.2642,1.2642,0,0,1-.3734.25,1.172,1.172,0,0,1-.45.0792,1.0249,1.0249,0,0,1-.8556-.4146,1.9121,1.9121,0,0,1-.32-1.1909,2.025,2.025,0,0,1,.17-.85,1.405,1.405,0,0,1,.4559-.5763,1.0312,1.0312,0,0,1,.6087-.2023,1.0521,1.0521,0,0,1,.3854.0671,1.0157,1.0157,0,0,1,.3442.2386.1262.1262,0,0,0,.0649.03c.0313,0,.0467-.0264.0467-.077V2.0825c0-.0825.0352-.1243.1061-.1243h.9529a.1015.1015,0,0,1,.082.0352.153.153,0,0,1,.03.1V6.1756a.1519.1519,0,0,1-.0352.1122.1756.1756,0,0,1-.1237.0351h-.8529A.171.171,0,0,1,41.9816,6.2911Zm-.25-2.3622a.4349.4349,0,0,0-.2205-.0528.3843.3843,0,0,0-.347.2056,1.4131,1.4131,0,0,0-.1237.6885,1.5085,1.5085,0,0,0,.1177.6972.3815.3815,0,0,0,.353.2089.4169.4169,0,0,0,.2942-.1089.3649.3649,0,0,0,.1171-.2793V4.0993A.781.781,0,0,0,41.732,3.9289Z" transform="translate(-0.7664 -0.1767)"/><path class="cls-1" d="M44.258,6.3812a.9583.9583,0,0,1-.6851-.2408.81.81,0,0,1-.2557-.6169.909.909,0,0,1,.2205-.6038,1.4278,1.4278,0,0,1,.629-.4058,2.8887,2.8887,0,0,1,.9562-.144h.0407c.0588,0,.0885-.0275.0885-.0825v-.1a.3042.3042,0,0,0-.3469-.3409.5675.5675,0,0,0-.2651.0649.4507.4507,0,0,0-.194.2122.1192.1192,0,0,1-.038.055.0941.0941,0,0,1-.0561.0154.2447.2447,0,0,1-.0643-.0066l-.7709-.1528a.07.07,0,0,1-.0643-.0759.388.388,0,0,1,.0231-.1122q.2474-.6994,1.4824-.6994A1.79,1.79,0,0,1,46.0489,3.4a.86.86,0,0,1,.32.717V6.1646a.213.213,0,0,1-.0264.1232.1327.1327,0,0,1-.1088.0351h-.8056a.1114.1114,0,0,1-.1028-.0527.4385.4385,0,0,1-.05-.1529L45.27,6.0755c-.0038-.0385-.02-.0583-.0473-.0583a.1858.1858,0,0,0-.1116.0583A1.2823,1.2823,0,0,1,44.258,6.3812Zm.9765-1.4582A.086.086,0,0,0,45.1636,4.9h-.0231a.9107.9107,0,0,0-.2738.0528.8466.8466,0,0,0-.2854.1562.3184.3184,0,0,0-.1232.2551.2512.2512,0,0,0,.088.2.3682.3682,0,0,0,.2475.077.4908.4908,0,0,0,.3233-.1121.3.3,0,0,0,.1352-.2123V5.0055A.1428.1428,0,0,0,45.2345,4.923Z" transform="translate(-0.7664 -0.1767)"/><path class="cls-1" d="M46.6317,7.27a.0992.0992,0,0,1-.0676-.1056v-.6a.1005.1005,0,0,1,.0385-.0759.18.18,0,0,1,.1264-.0352h.4174a.4934.4934,0,0,0,.2826-.077A.2156.2156,0,0,0,47.5406,6.2a.1846.1846,0,0,0-.0121-.0594L46.3876,3.3757a.1842.1842,0,0,1-.0116-.0528.1077.1077,0,0,1,.0352-.0846.1241.1241,0,0,1,.088-.033h.9941a.1466.1466,0,0,1,.0941.033.1711.1711,0,0,1,.0588.0846l.5,1.4121c.0115.04.0269.0583.0467.0583s.0374-.0187.0528-.0583l.5059-1.4121a.168.168,0,0,1,.1534-.1176h.6587a.1032.1032,0,0,1,.0819.033.11.11,0,0,1,.03.0791.1927.1927,0,0,1-.0115.0583L48.5172,6.14a2.9671,2.9671,0,0,1-.4091.7379,1.007,1.007,0,0,1-.4762.33,2.5541,2.5541,0,0,1-.7385.0858A.9474.9474,0,0,1,46.6317,7.27Z" transform="translate(-0.7664 -0.1767)"/><path class="cls-2" d="M30.945,7.0323a.1551.1551,0,0,1,.05.1209.2971.2971,0,0,1-.0121.07l-1.1937,3.982a.242.242,0,0,1-.0765.1122.225.225,0,0,1-.1352.0352h-.8116a.1956.1956,0,0,1-.2122-.1474l-.6115-2.07c-.0115-.0517-.0258-.077-.0412-.077-.0116,0-.0292.03-.0528.088l-.6059,2.0586a.2026.2026,0,0,1-.0737.1122.2382.2382,0,0,1-.138.0352h-.8413a.2256.2256,0,0,1-.1353-.0352.2426.2426,0,0,1-.0764-.1122l-1.2-3.982a.3025.3025,0,0,1-.0121-.07.1552.1552,0,0,1,.05-.1209.2069.2069,0,0,1,.1385-.044h.9705a.223.223,0,0,1,.1292.03.1611.1611,0,0,1,.0589.0945l.6235,2.1818c.0115.0473.0253.07.0412.07.0116,0,.0215-.0154.0292-.0473l.618-2.2049c.0192-.0824.0819-.1242.1881-.1242h.8236a.2238.2238,0,0,1,.1292.03.1636.1636,0,0,1,.0589.0945l.6472,2.2346a.0549.0549,0,0,0,.0352.0418c.0153.0033.0252-.0066.0291-.03l.6-2.2467c.02-.0824.0825-.1242.1886-.1242h.6823A.2069.2069,0,0,1,30.945,7.0323Z" transform="translate(-0.7664 -0.1767)"/><path class="cls-2" d="M31.2006,11.3211a.1562.1562,0,0,1-.0351-.1155V7.1235a.1531.1531,0,0,1,.03-.1.1018.1018,0,0,1,.0825-.0352h.9408c.07,0,.1061.0418.1061.1242V8.5762c0,.0319.0094.0473.0292.0473A.069.069,0,0,0,32.401,8.6a1.6352,1.6352,0,0,1,.4673-.3266,1.1884,1.1884,0,0,1,.4735-.0968.8865.8865,0,0,1,.6763.253.9966.9966,0,0,1,.2414.717v2.03a.1557.1557,0,0,1-.1765.176h-.8644a.143.143,0,0,1-.1061-.0319.1737.1737,0,0,1-.0292-.1155V9.2888a.27.27,0,0,0-.0824-.2067.3181.3181,0,0,0-.2238-.0759.4906.4906,0,0,0-.435.2936v1.8827a.168.168,0,0,1-.0439.132.2324.2324,0,0,1-.15.0385h-.83A.1763.1763,0,0,1,31.2006,11.3211Z" transform="translate(-0.7664 -0.1767)"/><path class="cls-2" d="M34.5328,12.3a.0992.0992,0,0,1-.0677-.1055v-.6005a.1005.1005,0,0,1,.0385-.0758.18.18,0,0,1,.1265-.0352h.4173a.4932.4932,0,0,0,.2826-.077.2157.2157,0,0,0,.1117-.176A.1873.1873,0,0,0,35.43,11.17l-1.141-2.7646a.1833.1833,0,0,1-.0115-.0528.1075.1075,0,0,1,.0352-.0847.1237.1237,0,0,1,.0879-.033h.9942a.1463.1463,0,0,1,.094.033.17.17,0,0,1,.0588.0847l.5,1.412c.0115.04.0269.0583.0467.0583s.0374-.0187.0528-.0583l.5059-1.412a.1679.1679,0,0,1,.1534-.1177h.6587a.1032.1032,0,0,1,.0819.033.1106.1106,0,0,1,.03.0792.1927.1927,0,0,1-.0115.0583L36.4182,11.17a2.96,2.96,0,0,1-.4091.7379,1.0072,1.0072,0,0,1-.4762.33,2.5569,2.5569,0,0,1-.7384.0857A.9469.9469,0,0,1,34.5328,12.3Z" transform="translate(-0.7664 -0.1767)"/></svg>