<svg xmlns="http://www.w3.org/2000/svg" viewBox="0 0 49.34 14.18"><defs><style>.cls-1{fill:#b8e3eb;}.cls-2{fill:#fedb26;}</style></defs><g id="Everyday_Why" data-name="Everyday Why"><path class="cls-1" d="M24.4,15.23H23.34c-.07,0-.13-.06-.13.09V1.49c0-.29.06-.35.13-.35H24.4a.13.13,0,0,1,.13.13V15.1A.13.13,0,0,1,24.4,15.23Z" transform="translate(-3.23 -1.14)"/><path class="cls-1" d="M27.53,3.09h3.21c.07,0,.11,0,.11.12V3.9c0,.11-.05.16-.15.16H28.9c-.09,0-.14,0-.14.11v.51a.12.12,0,0,0,.11.13h1.07c.09,0,.13,0,.13.11v.74c0,.07,0,.1-.11.1h-1.1a.09.09,0,0,0-.07,0,.06.06,0,0,0,0,.06v.59a.12.12,0,0,0,0,.07.08.08,0,0,0,.06,0h1.93c.09,0,.13,0,.13.11v.73a.13.13,0,0,1,0,.1.13.13,0,0,1-.1,0H27.57a.17.17,0,0,1-.12,0,.21.21,0,0,1,0-.12V3.22C27.41,3.13,27.45,3.09,27.53,3.09Z" transform="translate(-3.23 -1.14)"/><path class="cls-1" d="M33.67,4.38a.11.11,0,0,1,0,.08.13.13,0,0,1,0,.06L32.53,7.35a.36.36,0,0,1-.08.12.26.26,0,0,1-.14,0h-.56a.26.26,0,0,1-.14,0,.36.36,0,0,1-.08-.12L30.38,4.52a.07.07,0,0,1,0,0,.16.16,0,0,1,0-.09.12.12,0,0,1,.09,0h1a.17.17,0,0,1,.1,0,.15.15,0,0,1,.06.09l.52,1.37s0,0,0,0,0,0,0-.06l.51-1.36a.17.17,0,0,1,.15-.12h.67A.1.1,0,0,1,33.67,4.38Z" transform="translate(-3.23 -1.14)"/><path class="cls-1" d="M34.83,6.64a.68.68,0,0,0,.44.13.67.67,0,0,0,.31-.07,1.33,1.33,0,0,0,.34-.26l0,0,.08,0,.54.22a.07.07,0,0,1,0,.07.13.13,0,0,1,0,.07,1.78,1.78,0,0,1-.64.6,2,2,0,0,1-.86.16,1.84,1.84,0,0,1-.85-.2,1.57,1.57,0,0,1-.61-.56A1.62,1.62,0,0,1,33.43,6a1.72,1.72,0,0,1,.23-.88,1.6,1.6,0,0,1,.61-.6,1.67,1.67,0,0,1,.82-.21,1.73,1.73,0,0,1,.83.2,1.43,1.43,0,0,1,.58.59,1.85,1.85,0,0,1,.21.91.27.27,0,0,1,0,.11s0,0-.09,0H34.75c-.06,0-.09,0-.09.1A.5.5,0,0,0,34.83,6.64Zm.62-1.11a.13.13,0,0,0,.08,0s0,0,0-.07a.51.51,0,0,0-.1-.3A.38.38,0,0,0,35.14,5a.45.45,0,0,0-.33.14.51.51,0,0,0-.13.4Z" transform="translate(-3.23 -1.14)"/><path class="cls-1" d="M37,7.47a.21.21,0,0,1,0-.12V4.48c0-.09,0-.13.11-.13H38a.11.11,0,0,1,.08,0,.12.12,0,0,1,0,.09V4.8s0,0,0,0a.09.09,0,0,0,.06,0,1.33,1.33,0,0,1,.4-.38A.92.92,0,0,1,39,4.29c.15,0,.22,0,.22.12v.9a.12.12,0,0,1,0,.09h-.09a1.79,1.79,0,0,0-.51-.07.51.51,0,0,0-.35.13.33.33,0,0,0-.16.28V7.33c0,.06,0,.11,0,.13a.2.2,0,0,1-.14,0h-.84A.23.23,0,0,1,37,7.47Z" transform="translate(-3.23 -1.14)"/><path class="cls-1" d="M39.68,8.46a.1.1,0,0,1-.07-.11V7.74a.09.09,0,0,1,0-.07.17.17,0,0,1,.13,0h.42a.47.47,0,0,0,.29-.08.22.22,0,0,0,.11-.17s0,0,0-.06l-1.16-2.8a.11.11,0,0,1,0,0,.1.1,0,0,1,0-.09.11.11,0,0,1,.08,0h1a.17.17,0,0,1,.1,0,.35.35,0,0,1,.06.09l.5,1.42s0,.06,0,.06,0,0,.05-.06l.51-1.42A.18.18,0,0,1,42,4.35h.67a.1.1,0,0,1,.11.11s0,0,0,.06l-1.16,2.8a2.84,2.84,0,0,1-.42.74,1,1,0,0,1-.48.34,2.9,2.9,0,0,1-.75.08Z" transform="translate(-3.23 -1.14)"/><path class="cls-1" d="M44.79,7.47a.12.12,0,0,1,0-.11V7.25s0,0,0,0l0,0-.05,0a1.38,1.38,0,0,1-.38.25,1.26,1.26,0,0,1-.46.08A1,1,0,0,1,43,7.14a1.9,1.9,0,0,1-.33-1.2,1.94,1.94,0,0,1,.18-.86,1.31,1.31,0,0,1,.46-.59,1.06,1.06,0,0,1,.61-.2.94.94,0,0,1,.39.07.85.85,0,0,1,.35.24l.07,0s0,0,0-.08V3.21c0-.08,0-.12.11-.12h1a.12.12,0,0,1,.09,0,.17.17,0,0,1,0,.1V7.35a.16.16,0,0,1,0,.12.17.17,0,0,1-.12,0h-.87A.15.15,0,0,1,44.79,7.47Zm-.26-2.39a.44.44,0,0,0-.57.15,1.49,1.49,0,0,0-.13.7,1.56,1.56,0,0,0,.12.71.39.39,0,0,0,.36.21.44.44,0,0,0,.3-.11.38.38,0,0,0,.12-.29V5.25A.6.6,0,0,0,44.53,5.08Z" transform="translate(-3.23 -1.14)"/><path class="cls-1" d="M47.09,7.56a1,1,0,0,1-.69-.24.81.81,0,0,1-.26-.63.92.92,0,0,1,.22-.61A1.51,1.51,0,0,1,47,5.67a2.81,2.81,0,0,1,1-.14h0a.08.08,0,0,0,.09-.09v-.1c0-.23-.12-.34-.36-.34a.58.58,0,0,0-.26.06.43.43,0,0,0-.2.22.1.1,0,0,1,0,0l-.06,0h-.06l-.78-.15a.08.08,0,0,1-.07-.08.26.26,0,0,1,0-.11c.16-.48.66-.71,1.5-.71a1.8,1.8,0,0,1,1.1.25.88.88,0,0,1,.33.73V7.34a.23.23,0,0,1,0,.13.16.16,0,0,1-.11,0h-.82a.12.12,0,0,1-.1,0,.5.5,0,0,1-.05-.16v0s0-.06,0-.06a.19.19,0,0,0-.12.06A1.26,1.26,0,0,1,47.09,7.56Zm1-1.48-.07,0h0a1,1,0,0,0-.27.05.9.9,0,0,0-.29.16.32.32,0,0,0-.13.26.25.25,0,0,0,.09.2.37.37,0,0,0,.25.08A.52.52,0,0,0,48,6.7a.33.33,0,0,0,.14-.22V6.17A.2.2,0,0,0,48.08,6.08Z" transform="translate(-3.23 -1.14)"/><path class="cls-1" d="M49.49,8.46a.11.11,0,0,1-.07-.11V7.74a.09.09,0,0,1,0-.07.17.17,0,0,1,.13,0H50a.45.45,0,0,0,.29-.08.22.22,0,0,0,.11-.17.13.13,0,0,0,0-.06l-1.16-2.8a.43.43,0,0,0,0,0,.1.1,0,0,1,0-.09.12.12,0,0,1,.09,0h1a.17.17,0,0,1,.1,0,.15.15,0,0,1,.06.09L51,5.89s0,.06,0,.06,0,0,0-.06l.52-1.42a.16.16,0,0,1,.15-.12h.67a.1.1,0,0,1,.11.11.13.13,0,0,1,0,.06L51.4,7.32a2.84,2.84,0,0,1-.42.74,1,1,0,0,1-.48.34,2.87,2.87,0,0,1-.74.08A1.38,1.38,0,0,1,49.49,8.46Z" transform="translate(-3.23 -1.14)"/><path class="cls-2" d="M33.62,8.22a.13.13,0,0,1,.05.12.2.2,0,0,1,0,.07l-1.21,4a.23.23,0,0,1-.07.11.21.21,0,0,1-.14,0h-.82a.2.2,0,0,1-.22-.15l-.62-2.09c0-.06,0-.08,0-.08s0,0-.05.09l-.61,2.08a.19.19,0,0,1-.08.11.2.2,0,0,1-.14,0h-.85a.21.21,0,0,1-.14,0,.23.23,0,0,1-.07-.11l-1.22-4s0-.05,0-.07a.17.17,0,0,1,.05-.12.22.22,0,0,1,.14-.05h1a.21.21,0,0,1,.13,0,.17.17,0,0,1,.06.1l.63,2.21s0,.07.05.07,0,0,0-.05l.62-2.23a.17.17,0,0,1,.19-.13h.83a.26.26,0,0,1,.14,0,.44.44,0,0,1,.06.1l.65,2.26s0,0,0,0,0,0,0,0L32.6,8.3a.18.18,0,0,1,.19-.13h.69A.2.2,0,0,1,33.62,8.22Z" transform="translate(-3.23 -1.14)"/><path class="cls-2" d="M33.88,12.56a.19.19,0,0,1,0-.12V8.31a.15.15,0,0,1,0-.1.09.09,0,0,1,.08,0h.95c.07,0,.11.05.11.13V9.78s0,.05,0,.05l.05,0a1.84,1.84,0,0,1,.47-.33,1.28,1.28,0,0,1,.48-.09.89.89,0,0,1,.68.25,1,1,0,0,1,.25.73v2.05a.16.16,0,0,1-.18.18h-.88a.16.16,0,0,1-.11,0,.2.2,0,0,1,0-.12V10.5a.26.26,0,0,0-.09-.21.31.31,0,0,0-.22-.07.48.48,0,0,0-.44.29v1.91a.17.17,0,0,1,0,.13.21.21,0,0,1-.15,0H34A.17.17,0,0,1,33.88,12.56Z" transform="translate(-3.23 -1.14)"/><path class="cls-2" d="M37.25,13.55a.11.11,0,0,1-.07-.11v-.61a.13.13,0,0,1,0-.07.17.17,0,0,1,.13,0h.42a.52.52,0,0,0,.29-.08.22.22,0,0,0,.11-.18.18.18,0,0,0,0-.06L37,9.61s0,0,0-.06a.09.09,0,0,1,0-.08.12.12,0,0,1,.09,0h1a.17.17,0,0,1,.1,0,.16.16,0,0,1,.06.08l.5,1.43s0,.06,0,.06,0,0,.05-.06l.52-1.43a.16.16,0,0,1,.15-.11h.67a.1.1,0,0,1,.11.11.18.18,0,0,1,0,.06L39.16,12.4a3.09,3.09,0,0,1-.41.75.94.94,0,0,1-.49.33,2.44,2.44,0,0,1-.74.09Z" transform="translate(-3.23 -1.14)"/><path class="cls-2" d="M20.11,4.36a4.76,4.76,0,0,0-2-2.4,6.17,6.17,0,0,0-3.3-.82,7.21,7.21,0,0,0-2.63.46l-.52.24-.52-.24a7.23,7.23,0,0,0-2.64-.46A6.17,6.17,0,0,0,5.23,2a4.73,4.73,0,0,0-2,2.41.8.8,0,0,0,0,.21.3.3,0,0,0,.23.32L6,5.45l.2,0a.26.26,0,0,0,.18-.06.53.53,0,0,0,.13-.2,2.56,2.56,0,0,1,.84-1.12A2,2,0,0,1,8.5,3.7,1.45,1.45,0,0,1,9.4,4a.92.92,0,0,1,.37.75h0a2.51,2.51,0,0,0,.26,1,3.68,3.68,0,0,0,.66.9,12.35,12.35,0,0,0,1,.87c.41.33.73.6,1,.82a2.86,2.86,0,0,1,.59.77,2.31,2.31,0,0,1,.23,1,.45.45,0,0,0,.15.34.48.48,0,0,0,.34.13h2.07a.48.48,0,0,0,.37-.14.62.62,0,0,0,.14-.43,4.23,4.23,0,0,0-.29-1.6,4.42,4.42,0,0,0-.67-1.16c-.27-.3-.6-.66-1-1a8.37,8.37,0,0,1-.78-.83,1.09,1.09,0,0,1-.24-.68A1,1,0,0,1,14,4a1.4,1.4,0,0,1,.91-.29,2,2,0,0,1,1.17.39,2.47,2.47,0,0,1,.83,1.12.69.69,0,0,0,.13.2.29.29,0,0,0,.19.06l.19,0,2.52-.55a.3.3,0,0,0,.24-.32A2.19,2.19,0,0,0,20.11,4.36Z" transform="translate(-3.23 -1.14)"/><circle class="cls-1" cx="11.86" cy="12.56" r="1.53"/></g></svg>