<svg id="Layer_8" data-name="Layer 8" xmlns="http://www.w3.org/2000/svg" viewBox="0 0 49.585 14.1595"><defs><style>.cls-1{fill:#feda24;}.cls-2{fill:#20554e;}</style></defs><rect class="cls-1" x="20.0837" width="1.3275" height="14.1595" rx="0.1146"/><path class="cls-1" d="M24.7062,2.0342h3.2285c.0716,0,.1079.0425.1079.1263l-.0061.6931a.14.14,0,0,1-.1554.161H26.0874c-.0922,0-.1375.038-.1375.114v.5087a.1344.1344,0,0,0,.03.0928.1025.1025,0,0,0,.0777.0324h1.0766c.0832,0,.1252.04.1252.12v.7412c0,.0682-.0358.1017-.1074.1017H26.0455a.0961.0961,0,0,0-.0688.0246.0758.0758,0,0,0-.0268.0592v.5981a.1069.1069,0,0,0,.0145.066.0753.0753,0,0,0,.057.0179h1.9435c.0872,0,.1314.038.1314.1129v.7356a.1307.1307,0,0,1-.0358.0961.1483.1483,0,0,1-.1079.0358H24.7537a.1776.1776,0,0,1-.1257-.0358.1564.1564,0,0,1-.0358-.114v-4.15Q24.5922,2.0342,24.7062,2.0342Z" transform="translate(-0.2877 -0.0805)"/><path class="cls-1" d="M30.8821,3.3354a.1126.1126,0,0,1,.03.0805.2005.2005,0,0,1-.0123.0593L29.734,6.3214a.2375.2375,0,0,1-.0805.114.2449.2449,0,0,1-.1408.0358h-.5618a.2421.2421,0,0,1-.14-.0358.2349.2349,0,0,1-.081-.114L27.57,3.4752a.1526.1526,0,0,1-.0061-.047.13.13,0,0,1,.033-.0905.1131.1131,0,0,1,.0866-.0358h1.0106a.1492.1492,0,0,1,.0956.0335.1738.1738,0,0,1,.06.0861l.526,1.3817c.0123.0358.0262.0537.0419.0537s.0318-.02.0481-.06l.5081-1.375a.17.17,0,0,1,.1553-.12h.67A.1063.1063,0,0,1,30.8821,3.3354Z" transform="translate(-0.2877 -0.0805)"/><path class="cls-1" d="M32.0453,5.6037a.681.681,0,0,0,.4455.1375.6922.6922,0,0,0,.3108-.0738,1.4491,1.4491,0,0,0,.3409-.26.07.07,0,0,1,.0481-.0235.2726.2726,0,0,1,.0777.0179l.5439.22a.0716.0716,0,0,1,.0536.0726.1129.1129,0,0,1-.03.0716,1.8084,1.8084,0,0,1-.649.6,1.96,1.96,0,0,1-.858.1643,1.815,1.815,0,0,1-.8579-.2023,1.5252,1.5252,0,0,1-.8279-1.3873,1.7043,1.7043,0,0,1,.227-.8821,1.6269,1.6269,0,0,1,.61-.6014,1.6606,1.6606,0,0,1,.825-.2147,1.6961,1.6961,0,0,1,.84.2035,1.4382,1.4382,0,0,1,.5774.588,1.9023,1.9023,0,0,1,.2091.9178.2514.2514,0,0,1-.0179.1141c-.0117.02-.0419.0324-.0894.0357h-1.86c-.06,0-.09.0347-.09.1018A.484.484,0,0,0,32.0453,5.6037ZM32.67,4.4858a.15.15,0,0,0,.0805-.0146c.014-.01.0212-.0335.0212-.0693a.53.53,0,0,0-.1078-.3041.348.348,0,0,0-.3047-.1553.455.455,0,0,0-.3348.1375.5239.5239,0,0,0-.1319.4Z" transform="translate(-0.2877 -0.0805)"/><path class="cls-1" d="M34.18,6.4354a.1645.1645,0,0,1-.0325-.114V3.4394c0-.0917.0375-.1375.1135-.1375h.9329a.1.1,0,0,1,.0777.0335.1228.1228,0,0,1,.03.0861v.3354c0,.0358.014.0536.0419.0536a.0828.0828,0,0,0,.06-.0357,1.2177,1.2177,0,0,1,.4008-.3768.9165.9165,0,0,1,.4662-.1554c.1476,0,.2213.0392.2213.12v.9088a.1.1,0,0,1-.0329.0839.1054.1054,0,0,1-.0867.0111A2.0794,2.0794,0,0,0,35.8574,4.3a.557.557,0,0,0-.3555.1263.3558.3558,0,0,0-.1588.2806V6.2979a.1637.1637,0,0,1-.048.1341.2356.2356,0,0,1-.1493.0392h-.8429A.1669.1669,0,0,1,34.18,6.4354Z" transform="translate(-0.2877 -0.0805)"/><path class="cls-1" d="M36.9183,7.4337a.1009.1009,0,0,1-.0688-.1073v-.61a.1021.1021,0,0,1,.0392-.0771.1831.1831,0,0,1,.1285-.0358h.4243a.5013.5013,0,0,0,.2873-.0783.2193.2193,0,0,0,.1134-.1788.1886.1886,0,0,0-.0123-.06l-1.16-2.81a.1876.1876,0,0,1-.0117-.0537.11.11,0,0,1,.0357-.0861.1264.1264,0,0,1,.09-.0335h1.0106a.1489.1489,0,0,1,.0955.0335.1731.1731,0,0,1,.06.0861l.5087,1.4354c.0117.04.0274.0593.0475.0593s.038-.019.0537-.0593l.5142-1.4354a.1707.1707,0,0,1,.156-.12h.67a.1052.1052,0,0,1,.0833.0335.1126.1126,0,0,1,.03.0805.1975.1975,0,0,1-.0118.0593l-1.166,2.81a3.0093,3.0093,0,0,1-.4158.75,1.0233,1.0233,0,0,1-.4841.3354,2.598,2.598,0,0,1-.7507.0872A.965.965,0,0,1,36.9183,7.4337Z" transform="translate(-0.2877 -0.0805)"/><path class="cls-1" d="M42.0512,6.4388a.1258.1258,0,0,1-.0414-.1051V6.22a.0494.0494,0,0,0-.0123-.0357.0328.0328,0,0,0-.024-.0112.1166.1166,0,0,0-.0537.0235,1.2878,1.2878,0,0,1-.38.2537,1.1917,1.1917,0,0,1-.4578.08,1.0417,1.0417,0,0,1-.87-.4214,1.943,1.943,0,0,1-.3259-1.2107,2.0588,2.0588,0,0,1,.1733-.8642,1.4273,1.4273,0,0,1,.4633-.5858,1.0483,1.0483,0,0,1,.6188-.2057,1.07,1.07,0,0,1,.3918.0682,1.0351,1.0351,0,0,1,.35.2426.129.129,0,0,0,.066.03c.0319,0,.0475-.0268.0475-.0782V2.1605c0-.0838.0358-.1263.1079-.1263h.9687a.1028.1028,0,0,1,.0832.0358.1548.1548,0,0,1,.03.1017v4.15a.1543.1543,0,0,1-.0357.114.178.178,0,0,1-.1258.0358h-.867A.1732.1732,0,0,1,42.0512,6.4388Zm-.2538-2.4013a.4415.4415,0,0,0-.2241-.0537.39.39,0,0,0-.3527.2091,1.4344,1.4344,0,0,0-.1258.7,1.5331,1.5331,0,0,0,.12.7087.3877.3877,0,0,0,.3589.2124.4239.4239,0,0,0,.299-.1106.3709.3709,0,0,0,.1191-.284V4.2108A.7926.7926,0,0,0,41.7974,4.0375Z" transform="translate(-0.2877 -0.0805)"/><path class="cls-1" d="M44.3652,6.53a.9741.9741,0,0,1-.6964-.2448.8234.8234,0,0,1-.26-.6272.9241.9241,0,0,1,.2241-.6137,1.452,1.452,0,0,1,.6395-.4125,2.9326,2.9326,0,0,1,.972-.1464h.0413c.06,0,.09-.028.09-.0839V4.3a.3093.3093,0,0,0-.3527-.3466.577.577,0,0,0-.2694.066.4587.4587,0,0,0-.1973.2157.12.12,0,0,1-.0386.0559.0952.0952,0,0,1-.057.0157A.2485.2485,0,0,1,44.3954,4.3l-.7836-.1554a.071.071,0,0,1-.0654-.0771.3957.3957,0,0,1,.0234-.1141q.2515-.711,1.507-.711a1.8192,1.8192,0,0,1,1.109.2572.874.874,0,0,1,.3258.7288V6.31a.2165.2165,0,0,1-.0268.1252.1347.1347,0,0,1-.1107.0358h-.8188a.1131.1131,0,0,1-.1046-.0537A.4472.4472,0,0,1,45.4,6.2621L45.3937,6.22c-.0039-.0391-.02-.0592-.048-.0592a.1885.1885,0,0,0-.1135.0592A1.3038,1.3038,0,0,1,44.3652,6.53Zm.9927-1.4823a.0872.0872,0,0,0-.0721-.0235h-.0234a.9255.9255,0,0,0-.2784.0537.8609.8609,0,0,0-.29.1587.3238.3238,0,0,0-.1252.2594.2554.2554,0,0,0,.0894.2034.3745.3745,0,0,0,.2516.0783.4978.4978,0,0,0,.3286-.1141.3047.3047,0,0,0,.1375-.2157V5.1319A.1449.1449,0,0,0,45.3579,5.0481Z" transform="translate(-0.2877 -0.0805)"/><path class="cls-1" d="M46.7783,7.4337a.1009.1009,0,0,1-.0688-.1073v-.61a.1023.1023,0,0,1,.0391-.0771.1833.1833,0,0,1,.1286-.0358h.4242a.501.501,0,0,0,.2873-.0783.2192.2192,0,0,0,.1135-.1788.1886.1886,0,0,0-.0123-.06l-1.16-2.81a.1886.1886,0,0,1-.0118-.0537.11.11,0,0,1,.0358-.0861.1262.1262,0,0,1,.0894-.0335h1.0106a.149.149,0,0,1,.0956.0335.1731.1731,0,0,1,.06.0861l.5087,1.4354c.0117.04.0274.0593.0475.0593s.038-.019.0536-.0593l.5143-1.4354a.1706.1706,0,0,1,.1559-.12h.67a.1054.1054,0,0,1,.0833.0335.1126.1126,0,0,1,.03.0805.1969.1969,0,0,1-.0117.0593l-1.166,2.81a3.0093,3.0093,0,0,1-.4158.75,1.0238,1.0238,0,0,1-.4841.3354,2.598,2.598,0,0,1-.7507.0872A.965.965,0,0,1,46.7783,7.4337Z" transform="translate(-0.2877 -0.0805)"/><path class="cls-2" d="M30.8318,7.1922a.1583.1583,0,0,1,.0509.123.304.304,0,0,1-.0123.0715l-1.2135,4.048a.2468.2468,0,0,1-.0777.114.229.229,0,0,1-.1375.0358h-.825a.1991.1991,0,0,1-.2158-.15l-.6216-2.1039c-.0117-.0526-.0262-.0783-.0419-.0783-.0117,0-.03.03-.0536.09l-.616,2.0927a.2054.2054,0,0,1-.0749.114.2419.2419,0,0,1-.14.0358h-.8552a.229.229,0,0,1-.1375-.0358.2461.2461,0,0,1-.0777-.114l-1.22-4.048a.304.304,0,0,1-.0123-.0715.1583.1583,0,0,1,.0508-.123.2111.2111,0,0,1,.1409-.0447h.9865a.2271.2271,0,0,1,.1314.03.1636.1636,0,0,1,.06.0961l.6339,2.218c.0117.048.0257.0715.0419.0715.0117,0,.0218-.0156.03-.0481l.6283-2.2414c.02-.0838.0833-.1263.1911-.1263h.8374a.2279.2279,0,0,1,.1313.03.1661.1661,0,0,1,.06.0961l.6579,2.2716a.0559.0559,0,0,0,.0358.0425c.0156.0034.0257-.0067.03-.03l.61-2.2839c.02-.0838.0839-.1263.1917-.1263h.6937A.21.21,0,0,1,30.8318,7.1922Z" transform="translate(-0.2877 -0.0805)"/><path class="cls-2" d="M31.0917,11.5521a.1583.1583,0,0,1-.0358-.1174V7.285a.1555.1555,0,0,1,.03-.1017.1034.1034,0,0,1,.0839-.0358h.9563c.0716,0,.1079.0425.1079.1263v1.488c0,.0324.0095.048.03.048a.07.07,0,0,0,.048-.0234,1.6626,1.6626,0,0,1,.4751-.3321,1.2087,1.2087,0,0,1,.4813-.0983.9011.9011,0,0,1,.6875.2571,1.013,1.013,0,0,1,.2454.7289v2.0636a.1582.1582,0,0,1-.1794.1789h-.8787a.1455.1455,0,0,1-.1079-.0324.1769.1769,0,0,1-.03-.1174V9.4862a.2739.2739,0,0,0-.0839-.21.3234.3234,0,0,0-.2275-.0771.4985.4985,0,0,0-.4421.2985v1.9138a.1708.1708,0,0,1-.0447.1342.2362.2362,0,0,1-.1526.0391h-.8435A.1794.1794,0,0,1,31.0917,11.5521Z" transform="translate(-0.2877 -0.0805)"/><path class="cls-2" d="M34.479,12.547A.1009.1009,0,0,1,34.41,12.44v-.61a.1024.1024,0,0,1,.0392-.0771.1831.1831,0,0,1,.1285-.0358h.4243a.5018.5018,0,0,0,.2873-.0782.2194.2194,0,0,0,.1134-.1789.1886.1886,0,0,0-.0123-.06l-1.16-2.81a.1876.1876,0,0,1-.0117-.0537.1091.1091,0,0,1,.0358-.086.1257.1257,0,0,1,.0894-.0336h1.0106a.1489.1489,0,0,1,.0956.0336.1741.1741,0,0,1,.06.086L36.0189,9.97c.0118.04.0274.0593.0475.0593s.038-.019.0537-.0593l.5142-1.4354a.171.171,0,0,1,.156-.12h.67a.105.105,0,0,1,.0833.0336.1122.1122,0,0,1,.03.08.1944.1944,0,0,1-.0118.0593l-1.1659,2.81a3.0123,3.0123,0,0,1-.4159.75,1.0233,1.0233,0,0,1-.4841.3354,2.5972,2.5972,0,0,1-.7506.0872A.9613.9613,0,0,1,34.479,12.547Z" transform="translate(-0.2877 -0.0805)"/><path class="cls-2" d="M17.25,3.32A4.7983,4.7983,0,0,0,15.2749.9a6.2638,6.2638,0,0,0-3.3184-.82A7.11,7.11,0,0,0,9.31.5447c-.1843.0734-.3579.1532-.5225.2384-.1638-.0847-.3364-.164-.52-.237A7.11,7.11,0,0,0,5.6208.0819a6.2647,6.2647,0,0,0-3.3184.82,4.7987,4.7987,0,0,0-1.9752,2.42,1.0926,1.0926,0,0,0-.0395.2173.2915.2915,0,0,0,.237.316l2.5283.5531a.8228.8228,0,0,0,.1975.02.2794.2794,0,0,0,.1877-.0593.54.54,0,0,0,.1284-.1975A2.519,2.519,0,0,1,4.406,3.0448,1.9583,1.9583,0,0,1,5.5813,2.65,1.421,1.421,0,0,1,6.49,2.946a.9179.9179,0,0,1,.3754.7506l.0033.0075a2.5573,2.5573,0,0,0,.2683,1.0182,3.5178,3.5178,0,0,0,.6617.9086A11.2262,11.2262,0,0,0,8.8356,6.5q.6128.4939.9679.82a2.8156,2.8156,0,0,1,.5926.78,2.2319,2.2319,0,0,1,.2371,1.0469.4416.4416,0,0,0,.148.3358.4912.4912,0,0,0,.3457.1383h2.074a.4882.4882,0,0,0,.3753-.1482.5987.5987,0,0,0,.1383-.4246,4.23,4.23,0,0,0-.2864-1.61,4.2787,4.2787,0,0,0-.6815-1.1654q-.3948-.464-1.0073-1.0567a8.685,8.685,0,0,1-.79-.84,1.0854,1.0854,0,0,1-.2372-.6814.9179.9179,0,0,1,.3754-.7506,1.421,1.421,0,0,1,.9086-.2963,1.9582,1.9582,0,0,1,1.1753.395,2.52,2.52,0,0,1,.8394,1.1259.538.538,0,0,0,.1284.1975.2788.2788,0,0,0,.1877.0593.8285.8285,0,0,0,.1975-.02l2.5283-.5532a.2914.2914,0,0,0,.237-.316A1.0932,1.0932,0,0,0,17.25,3.32Z" transform="translate(-0.2877 -0.0805)"/><circle class="cls-1" cx="11.922" cy="12.6187" r="1.5409"/></svg>