<svg id="Layer_8" data-name="Layer 8" xmlns="http://www.w3.org/2000/svg" viewBox="0 0 49.5867 14.1637"><defs><style>.cls-1{fill:#8aa3a0;}.cls-2{fill:#20554e;}</style></defs><rect class="cls-1" x="20.0852" y="0.0041" width="1.3275" height="14.1595" rx="0.1146"/><path class="cls-1" d="M24.4185,1.9537H27.647c.0716,0,.1079.0425.1079.1263l-.0061.6931a.14.14,0,0,1-.1554.161H25.8c-.0922,0-.1375.038-.1375.114v.5087a.1341.1341,0,0,0,.03.0928.1028.1028,0,0,0,.0777.0324h1.0766c.0832,0,.1252.04.1252.12v.7412c0,.0682-.0358.1017-.1074.1017H25.7578a.0961.0961,0,0,0-.0688.0246.0756.0756,0,0,0-.0268.0592v.5981a.1074.1074,0,0,0,.0145.066.0753.0753,0,0,0,.057.0179h1.9435c.0872,0,.1314.038.1314.1129v.7356a.1306.1306,0,0,1-.0358.0961.1482.1482,0,0,1-.1079.0358H24.466a.1774.1774,0,0,1-.1257-.0358.1564.1564,0,0,1-.0358-.114v-4.15Q24.3045,1.9538,24.4185,1.9537Z" transform="translate(0.0015 0.0041)"/><path class="cls-1" d="M30.5944,3.2549a.113.113,0,0,1,.03.08.2.2,0,0,1-.0123.0593L29.4463,6.2409a.2378.2378,0,0,1-.0805.114.2447.2447,0,0,1-.1408.0358h-.5618a.2421.2421,0,0,1-.14-.0358.2354.2354,0,0,1-.081-.114l-1.16-2.8462a.1526.1526,0,0,1-.0061-.047.13.13,0,0,1,.033-.0905.1132.1132,0,0,1,.0866-.0358h1.0106a.1492.1492,0,0,1,.0956.0335.1739.1739,0,0,1,.06.0861l.526,1.3817c.0123.0358.0262.0537.0419.0537s.0318-.02.0481-.06l.5081-1.375a.17.17,0,0,1,.1553-.12h.67A.1065.1065,0,0,1,30.5944,3.2549Z" transform="translate(0.0015 0.0041)"/><path class="cls-1" d="M31.7576,5.5232a.6811.6811,0,0,0,.4455.1375.6918.6918,0,0,0,.3108-.0738,1.4489,1.4489,0,0,0,.3409-.26.07.07,0,0,1,.0481-.0235.2736.2736,0,0,1,.0777.0179l.5439.22a.0716.0716,0,0,1,.0536.0726.1125.1125,0,0,1-.03.0716,1.8085,1.8085,0,0,1-.649.6,1.96,1.96,0,0,1-.858.1643,1.815,1.815,0,0,1-.8579-.2023A1.5253,1.5253,0,0,1,30.3553,4.86a1.7038,1.7038,0,0,1,.227-.8821,1.6271,1.6271,0,0,1,.61-.6014,1.6613,1.6613,0,0,1,.825-.2147,1.6968,1.6968,0,0,1,.84.2035,1.4386,1.4386,0,0,1,.5774.588,1.9021,1.9021,0,0,1,.2091.9178.2515.2515,0,0,1-.0179.1141c-.0117.02-.0419.0324-.0894.0357h-1.86c-.06,0-.09.0347-.09.1018A.484.484,0,0,0,31.7576,5.5232Zm.6247-1.1179a.15.15,0,0,0,.0805-.0146c.014-.01.0212-.0335.0212-.0693a.53.53,0,0,0-.1078-.3041.348.348,0,0,0-.3047-.1553A.455.455,0,0,0,31.7367,4a.524.524,0,0,0-.1319.4Z" transform="translate(0.0015 0.0041)"/><path class="cls-1" d="M33.8923,6.3549a.1646.1646,0,0,1-.0325-.114V3.3589c0-.0917.0375-.1375.1135-.1375h.9329a.1.1,0,0,1,.0777.0335.1228.1228,0,0,1,.03.0861v.3354c0,.0358.014.0536.0419.0536a.0828.0828,0,0,0,.06-.0357,1.218,1.218,0,0,1,.4008-.3768.9166.9166,0,0,1,.4662-.1554c.1476,0,.2213.0392.2213.12v.9088a.1.1,0,0,1-.0329.0839.1054.1054,0,0,1-.0867.0111A2.08,2.08,0,0,0,35.57,4.22a.557.557,0,0,0-.3555.1263.3559.3559,0,0,0-.1588.2806v1.591a.1637.1637,0,0,1-.048.1341.2352.2352,0,0,1-.1493.0392h-.8429A.1668.1668,0,0,1,33.8923,6.3549Z" transform="translate(0.0015 0.0041)"/><path class="cls-1" d="M36.6306,7.3532a.1009.1009,0,0,1-.0688-.1073v-.61a.1023.1023,0,0,1,.0392-.0771A.1832.1832,0,0,1,36.73,6.523h.4243a.5012.5012,0,0,0,.2873-.0783.2192.2192,0,0,0,.1134-.1788.19.19,0,0,0-.0123-.06l-1.16-2.81a.1863.1863,0,0,1-.0117-.0537.11.11,0,0,1,.0357-.0861.1263.1263,0,0,1,.09-.0335h1.0106a.1488.1488,0,0,1,.0955.0335.1733.1733,0,0,1,.06.0861l.5087,1.4354c.0117.04.0274.0593.0475.0593s.038-.019.0537-.0593l.5142-1.4354a.1707.1707,0,0,1,.156-.12h.67a.1055.1055,0,0,1,.0833.0335.1125.1125,0,0,1,.03.08.1966.1966,0,0,1-.0118.0593l-1.166,2.81a3.01,3.01,0,0,1-.4158.75,1.0228,1.0228,0,0,1-.4841.3354,2.5969,2.5969,0,0,1-.7507.0872A.9649.9649,0,0,1,36.6306,7.3532Z" transform="translate(0.0015 0.0041)"/><path class="cls-1" d="M41.7635,6.3583a.1259.1259,0,0,1-.0414-.1051V6.14a.0491.0491,0,0,0-.0123-.0357.0331.0331,0,0,0-.024-.0112.116.116,0,0,0-.0537.0235,1.2871,1.2871,0,0,1-.38.2537,1.1915,1.1915,0,0,1-.4578.08,1.0416,1.0416,0,0,1-.87-.4214,1.9435,1.9435,0,0,1-.3259-1.2107,2.0584,2.0584,0,0,1,.1733-.8642,1.4275,1.4275,0,0,1,.4633-.5858,1.0482,1.0482,0,0,1,.6188-.2057,1.0694,1.0694,0,0,1,.3918.0682,1.0342,1.0342,0,0,1,.35.2426.1293.1293,0,0,0,.066.03c.0319,0,.0475-.0268.0475-.0782V2.08c0-.0838.0358-.1263.1079-.1263h.9687a.1026.1026,0,0,1,.0832.0358.1544.1544,0,0,1,.03.1017v4.15a.1543.1543,0,0,1-.0357.114.1776.1776,0,0,1-.1258.0358H41.87A.1733.1733,0,0,1,41.7635,6.3583ZM41.51,3.957a.4413.4413,0,0,0-.2241-.0537.39.39,0,0,0-.3527.2091,1.4348,1.4348,0,0,0-.1258.7,1.5334,1.5334,0,0,0,.12.7087.3875.3875,0,0,0,.3589.2124.4239.4239,0,0,0,.299-.1106.3708.3708,0,0,0,.1191-.284V4.13A.7936.7936,0,0,0,41.51,3.957Z" transform="translate(0.0015 0.0041)"/><path class="cls-1" d="M44.0775,6.45a.9741.9741,0,0,1-.6964-.2448.8234.8234,0,0,1-.26-.6272.9245.9245,0,0,1,.2241-.6137,1.4523,1.4523,0,0,1,.6395-.4125,2.9348,2.9348,0,0,1,.972-.1464h.0413q.09,0,.09-.0839V4.22a.3092.3092,0,0,0-.3527-.3466.5772.5772,0,0,0-.2694.066.4591.4591,0,0,0-.1973.2157.12.12,0,0,1-.0386.0559.0953.0953,0,0,1-.057.0157.2474.2474,0,0,1-.0653-.0067l-.7836-.1554a.071.071,0,0,1-.0655-.0761V3.987a.3943.3943,0,0,1,.0234-.1141q.2516-.711,1.507-.711a1.819,1.819,0,0,1,1.109.2572.8739.8739,0,0,1,.3258.7288V6.23a.2161.2161,0,0,1-.0268.1252.1348.1348,0,0,1-.1107.0358h-.8188a.1131.1131,0,0,1-.1046-.0537.4463.4463,0,0,1-.0507-.1552L45.106,6.14c-.0039-.0391-.02-.0592-.048-.0592a.1884.1884,0,0,0-.1135.0592A1.3043,1.3043,0,0,1,44.0775,6.45ZM45.07,4.9672a.0871.0871,0,0,0-.0721-.0235h-.0234a.9256.9256,0,0,0-.2784.0537.8621.8621,0,0,0-.29.1587.3239.3239,0,0,0-.1252.2594.2553.2553,0,0,0,.0894.2034.3748.3748,0,0,0,.2516.0783.498.498,0,0,0,.3286-.1141.3045.3045,0,0,0,.1375-.2157v-.316a.145.145,0,0,0-.018-.0838Z" transform="translate(0.0015 0.0041)"/><path class="cls-1" d="M46.4906,7.3532a.1009.1009,0,0,1-.0688-.1073v-.61a.1023.1023,0,0,1,.0391-.0771A.1829.1829,0,0,1,46.59,6.523h.4242a.5012.5012,0,0,0,.2873-.0783.2193.2193,0,0,0,.1135-.1788.19.19,0,0,0-.0123-.06l-1.16-2.81a.19.19,0,0,1-.0118-.0537.11.11,0,0,1,.0358-.0861.1264.1264,0,0,1,.0894-.0335h1.0106a.1492.1492,0,0,1,.0956.0335.1733.1733,0,0,1,.06.0861l.5087,1.4354c.0117.04.0274.0593.0475.0593s.038-.019.0536-.0593l.5143-1.4354a.1706.1706,0,0,1,.1559-.12h.67a.1055.1055,0,0,1,.0833.0335.1125.1125,0,0,1,.03.08.1964.1964,0,0,1-.0117.0593l-1.166,2.81a3.01,3.01,0,0,1-.4158.75,1.024,1.024,0,0,1-.4841.3354,2.5969,2.5969,0,0,1-.7507.0872A.9652.9652,0,0,1,46.4906,7.3532Z" transform="translate(0.0015 0.0041)"/><path class="cls-2" d="M30.5441,7.1117a.1584.1584,0,0,1,.0509.123.3052.3052,0,0,1-.0123.0715l-1.2135,4.048a.2465.2465,0,0,1-.0777.114.2294.2294,0,0,1-.1375.0358h-.825a.1991.1991,0,0,1-.2158-.15L27.4916,9.25c-.0117-.0526-.0262-.0783-.0419-.0783-.0117,0-.03.03-.0536.09l-.616,2.0927a.206.206,0,0,1-.0749.114.2421.2421,0,0,1-.14.0358H25.71a.2294.2294,0,0,1-.1375-.0358.2465.2465,0,0,1-.0777-.114l-1.22-4.048a.3052.3052,0,0,1-.0123-.0715.158.158,0,0,1,.0508-.123.2109.2109,0,0,1,.1409-.0447h.9865a.2272.2272,0,0,1,.1314.03.1635.1635,0,0,1,.06.0961l.6339,2.218c.0117.048.0257.0715.0419.0715.0117,0,.0218-.0156.03-.0481l.6283-2.2414c.02-.0838.0833-.1263.1911-.1263h.8374a.2275.2275,0,0,1,.1313.03.1661.1661,0,0,1,.06.0961l.6579,2.2716a.0559.0559,0,0,0,.0358.0425c.0156.0034.0257-.0067.03-.03l.61-2.2839c.02-.0838.0839-.1263.1917-.1263h.6937A.21.21,0,0,1,30.5441,7.1117Z" transform="translate(0.0015 0.0041)"/><path class="cls-2" d="M30.804,11.4716a.1585.1585,0,0,1-.0358-.1174v-4.15a.1555.1555,0,0,1,.03-.1017.1034.1034,0,0,1,.0839-.0358h.9563c.0716,0,.1079.0425.1079.1263v1.488c0,.0324.0095.048.03.048a.07.07,0,0,0,.048-.0234,1.6613,1.6613,0,0,1,.4751-.3321,1.2084,1.2084,0,0,1,.4813-.0983.9012.9012,0,0,1,.6875.2571,1.0132,1.0132,0,0,1,.2454.7289v2.0636a.1581.1581,0,0,1-.1794.1789h-.8787a.1454.1454,0,0,1-.1079-.0324.1772.1772,0,0,1-.03-.1174V9.4057a.2738.2738,0,0,0-.0839-.21.323.323,0,0,0-.2275-.0771.4986.4986,0,0,0-.4421.2985v1.9138a.1708.1708,0,0,1-.0447.1342.2364.2364,0,0,1-.1526.0391h-.8435A.1792.1792,0,0,1,30.804,11.4716Z" transform="translate(0.0015 0.0041)"/><path class="cls-2" d="M34.1913,12.4665a.101.101,0,0,1-.069-.107v-.61a.1023.1023,0,0,1,.0392-.0771.1832.1832,0,0,1,.1285-.0358h.4243a.5019.5019,0,0,0,.2873-.0782.2194.2194,0,0,0,.1134-.1789.19.19,0,0,0-.0123-.06l-1.16-2.81a.1863.1863,0,0,1-.0117-.0537.1091.1091,0,0,1,.0358-.086.1257.1257,0,0,1,.0894-.0336h1.0106a.1493.1493,0,0,1,.0956.0336.1737.1737,0,0,1,.06.086L35.7312,9.89c.0118.04.0274.0593.0475.0593s.038-.019.0537-.0593l.5142-1.4354a.1711.1711,0,0,1,.156-.12h.67a.1051.1051,0,0,1,.0833.0336.1122.1122,0,0,1,.03.08.1936.1936,0,0,1-.0118.0593l-1.1659,2.81a3.013,3.013,0,0,1-.4159.75,1.0233,1.0233,0,0,1-.4841.3354,2.5967,2.5967,0,0,1-.7506.0872A.9616.9616,0,0,1,34.1913,12.4665Z" transform="translate(0.0015 0.0041)"/><path class="cls-2" d="M16.9623,3.24A4.798,4.798,0,0,0,14.9872.82,6.2637,6.2637,0,0,0,11.6688,0,7.11,7.11,0,0,0,9.0223.4642C8.838.5376,8.6644.6174,8.5.7026,8.336.6179,8.1634.5386,7.98.4656A7.1091,7.1091,0,0,0,5.3331.0014a6.2637,6.2637,0,0,0-3.3184.82A4.7987,4.7987,0,0,0,.04,3.2414,1.0907,1.0907,0,0,0,0,3.4587a.2915.2915,0,0,0,.237.316l2.5283.5531a.825.825,0,0,0,.1975.02.2791.2791,0,0,0,.1877-.0593.54.54,0,0,0,.1284-.1975,2.5192,2.5192,0,0,1,.8394-1.1267A1.9582,1.9582,0,0,1,5.2936,2.57a1.421,1.421,0,0,1,.9087.296.9178.9178,0,0,1,.3754.7506l.0033.0075a2.5567,2.5567,0,0,0,.2683,1.0182A3.5166,3.5166,0,0,0,7.511,5.55,11.2179,11.2179,0,0,0,8.5479,6.42q.6128.4939.9679.82a2.8154,2.8154,0,0,1,.5926.78,2.2322,2.2322,0,0,1,.2371,1.0469.4417.4417,0,0,0,.148.3358.4909.4909,0,0,0,.3457.1383h2.074a.4884.4884,0,0,0,.3753-.1482.5987.5987,0,0,0,.1383-.4246,4.2288,4.2288,0,0,0-.2864-1.61,4.28,4.28,0,0,0-.6815-1.1654q-.3948-.464-1.0073-1.0567a8.675,8.675,0,0,1-.79-.84,1.0854,1.0854,0,0,1-.2372-.6814A.9178.9178,0,0,1,10.8,2.8636a1.421,1.421,0,0,1,.9086-.2963,1.9582,1.9582,0,0,1,1.1753.395,2.52,2.52,0,0,1,.8394,1.1259.5375.5375,0,0,0,.1284.1975.2791.2791,0,0,0,.1877.0593.825.825,0,0,0,.1975-.02l2.5283-.5532a.2915.2915,0,0,0,.237-.316A1.0885,1.0885,0,0,0,16.9623,3.24Z" transform="translate(0.0015 0.0041)"/><circle class="cls-1" cx="11.9235" cy="12.6228" r="1.5409"/></svg>