<svg xmlns="http://www.w3.org/2000/svg" preserveAspectRatio="xMidYMid meet" viewBox="0 0 49.3421 14.1793"><defs><style>.cls-1{fill:#b8e3eb;}.cls-2{fill:#fedb26;}</style></defs><g id="Separator"><path class="cls-1" d="M21.441,14.1793h-1.06c-.0721,0-.1305-.0584-.1305.0892V.4394c0-.2918.0584-.35.1305-.35h1.06A.1306.1306,0,0,1,21.5716.22V14.0488A.1306.1306,0,0,1,21.441,14.1793Z" transform="translate(-0.2653 -0.0892)"/></g><g id="Isotype_bottom" data-name="Isotype bottom"><circle class="cls-1" cx="11.8636" cy="12.5568" r="1.5333"/></g><g id="Isotype_top" data-name="Isotype top"><path class="cls-2" d="M17.1447,3.3127A4.7754,4.7754,0,0,0,15.1791.9049,6.2334,6.2334,0,0,0,11.8769.0892,7.0745,7.0745,0,0,0,9.2431.5511c-.1834.073-.3562.1524-.52.2372C8.56.7041,8.3884.6251,8.2062.5525A7.0771,7.0771,0,0,0,5.5723.0906,6.233,6.233,0,0,0,2.27.9063,4.7744,4.7744,0,0,0,.3046,3.3141,1.0938,1.0938,0,0,0,.2653,3.53a.29.29,0,0,0,.2358.3145l2.5159.55a.8216.8216,0,0,0,.1966.02A.2772.2772,0,0,0,3.4,4.3558a.5351.5351,0,0,0,.1278-.1965,2.5075,2.5075,0,0,1,.8354-1.12,1.9484,1.9484,0,0,1,1.17-.3931,1.4141,1.4141,0,0,1,.9041.2949.9131.9131,0,0,1,.3736.7469l.0033.0074a2.5425,2.5425,0,0,0,.267,1.0132,3.4969,3.4969,0,0,0,.6584.9042,11.1716,11.1716,0,0,0,1.0319.8649q.61.4914.9632.8157a2.8,2.8,0,0,1,.59.7763A2.2212,2.2212,0,0,1,10.56,9.1111a.4394.4394,0,0,0,.1473.3341.4886.4886,0,0,0,.344.1376h2.0638a.486.486,0,0,0,.3735-.1474.5962.5962,0,0,0,.1376-.4226,4.2082,4.2082,0,0,0-.285-1.6019,4.2574,4.2574,0,0,0-.6781-1.16Q12.27,5.79,11.6608,5.2a8.6612,8.6612,0,0,1-.7863-.8353,1.0809,1.0809,0,0,1-.2359-.6781.9134.9134,0,0,1,.3735-.747,1.414,1.414,0,0,1,.9041-.2948,1.9486,1.9486,0,0,1,1.17.3931,2.5067,2.5067,0,0,1,.8353,1.12.5351.5351,0,0,0,.1278.1965.2772.2772,0,0,0,.1867.059.8215.8215,0,0,0,.1966-.02l2.5159-.55a.29.29,0,0,0,.2358-.3144A1.0912,1.0912,0,0,0,17.1447,3.3127Z" transform="translate(-0.2653 -0.0892)"/></g><g id="Everyday_Why" data-name="Everyday Why"><path class="cls-1" d="M24.5642,2.0336h3.2127c.0712,0,.1074.0423.1074.1257l-.0062.69a.1392.1392,0,0,1-.1546.16H25.9386c-.0918,0-.1368.0379-.1368.1135v.5062a.1332.1332,0,0,0,.0295.0923.102.102,0,0,0,.0773.0323H26.98c.0828,0,.1245.04.1245.119V4.61c0,.0679-.0355.1013-.1067.1013H25.8969a.0955.0955,0,0,0-.0684.0244.0756.0756,0,0,0-.0267.059V5.39a.1061.1061,0,0,0,.0144.0657.0753.0753,0,0,0,.0568.0178h1.934c.0867,0,.1307.0378.1307.1123v.732a.13.13,0,0,1-.0356.0957.1477.1477,0,0,1-.1074.0356H24.6115a.177.177,0,0,1-.1252-.0356A.1561.1561,0,0,1,24.4507,6.3V2.1705Q24.4507,2.0336,24.5642,2.0336Z" transform="translate(-0.2653 -0.0892)"/><path class="cls-1" d="M30.71,3.3285a.1118.1118,0,0,1,.03.08.2015.2015,0,0,1-.0122.059L29.5674,6.3a.2365.2365,0,0,1-.08.1135.2438.2438,0,0,1-.14.0356h-.559a.2407.2407,0,0,1-.14-.0356A.2339.2339,0,0,1,28.5679,6.3L27.4137,3.4676a.1517.1517,0,0,1-.0061-.0468.1292.1292,0,0,1,.0328-.09.1129.1129,0,0,1,.0862-.0356h1.0057a.1483.1483,0,0,1,.0951.0334.1728.1728,0,0,1,.0595.0857L29.21,4.7891q.0183.0534.0417.0534c.0161,0,.0317-.02.0478-.06l.5056-1.3683a.1694.1694,0,0,1,.1547-.1191h.6663A.1061.1061,0,0,1,30.71,3.3285Z" transform="translate(-0.2653 -0.0892)"/><path class="cls-1" d="M31.8673,5.5856a.6777.6777,0,0,0,.4434.1369A.6882.6882,0,0,0,32.62,5.649a1.439,1.439,0,0,0,.3393-.2592.07.07,0,0,1,.0478-.0233.2682.2682,0,0,1,.0773.0178l.5412.2191a.0713.0713,0,0,1,.0534.0723.1119.1119,0,0,1-.0294.0712,1.7981,1.7981,0,0,1-.6458.5974,1.9506,1.9506,0,0,1-.8538.1635,1.8058,1.8058,0,0,1-.8538-.2013,1.5178,1.5178,0,0,1-.8237-1.38,1.6953,1.6953,0,0,1,.2258-.8777A1.6186,1.6186,0,0,1,31.305,3.45a1.6529,1.6529,0,0,1,.821-.2136,1.6883,1.6883,0,0,1,.836.2024,1.4313,1.4313,0,0,1,.5746.5852,1.8927,1.8927,0,0,1,.208.9133.2493.2493,0,0,1-.0178.1135c-.0117.02-.0417.0322-.089.0356H31.7872c-.0595,0-.0895.0344-.0895.1012A.4816.4816,0,0,0,31.8673,5.5856Zm.6219-1.1124a.1482.1482,0,0,0,.08-.0145c.0139-.01.0211-.0333.0211-.0689a.5274.5274,0,0,0-.1073-.3026.346.346,0,0,0-.3032-.1546.4528.4528,0,0,0-.3331.1368.5211.5211,0,0,0-.1313.3982Z" transform="translate(-0.2653 -0.0892)"/><path class="cls-1" d="M33.9915,6.4133A.1638.1638,0,0,1,33.9593,6.3V3.432c0-.0913.0372-.1369.1129-.1369h.9283a.0991.0991,0,0,1,.0773.0334.1222.1222,0,0,1,.0295.0857v.3337q0,.0534.0417.0534a.0822.0822,0,0,0,.0595-.0356,1.213,1.213,0,0,1,.3989-.3749.9107.9107,0,0,1,.4638-.1546c.1469,0,.22.0389.22.119V4.26a.0988.0988,0,0,1-.0328.0834.1047.1047,0,0,1-.0862.0112,2.07,2.07,0,0,0-.5117-.0657.5543.5543,0,0,0-.3538.1257.3541.3541,0,0,0-.158.2793v1.583a.1629.1629,0,0,1-.0478.1335.2354.2354,0,0,1-.1485.0389h-.8388A.1665.1665,0,0,1,33.9915,6.4133Z" transform="translate(-0.2653 -0.0892)"/><path class="cls-1" d="M36.7165,7.4067A.1.1,0,0,1,36.648,7.3V6.6925a.1015.1015,0,0,1,.039-.0767.1822.1822,0,0,1,.1279-.0356h.4222a.4992.4992,0,0,0,.2859-.0779.2183.2183,0,0,0,.1129-.178.187.187,0,0,0-.0123-.06L36.47,3.4676a.1861.1861,0,0,1-.0117-.0534.109.109,0,0,1,.0356-.0857.1256.1256,0,0,1,.089-.0334H37.588a.1488.1488,0,0,1,.0952.0334.1728.1728,0,0,1,.0595.0857l.5061,1.4283c.0117.04.0273.059.0473.059s.0378-.0189.0534-.059l.5117-1.4283a.17.17,0,0,1,.1552-.1191h.6664a.1044.1044,0,0,1,.0828.0334.1114.1114,0,0,1,.03.08.1952.1952,0,0,1-.0117.059l-1.16,2.7966a2.9967,2.9967,0,0,1-.4138.7465,1.0185,1.0185,0,0,1-.4817.3337,2.5853,2.5853,0,0,1-.747.0868A.9569.9569,0,0,1,36.7165,7.4067Z" transform="translate(-0.2653 -0.0892)"/><path class="cls-1" d="M41.8242,6.4166a.125.125,0,0,1-.0412-.1045V6.1986a.0491.0491,0,0,0-.0122-.0356.033.033,0,0,0-.0239-.0111.1172.1172,0,0,0-.0534.0233,1.282,1.282,0,0,1-.3777.2526,1.1881,1.1881,0,0,1-.4555.08,1.0369,1.0369,0,0,1-.8655-.4193,1.934,1.934,0,0,1-.3243-1.2048,2.0473,2.0473,0,0,1,.1725-.86,1.4193,1.4193,0,0,1,.4611-.5829,1.0424,1.0424,0,0,1,.6157-.2047,1.0649,1.0649,0,0,1,.39.0678,1.0279,1.0279,0,0,1,.3482.2414.1273.1273,0,0,0,.0656.03c.0317,0,.0473-.0267.0473-.0779V2.1593c0-.0834.0356-.1257.1074-.1257h.9639a.1027.1027,0,0,1,.0829.0356.1551.1551,0,0,1,.03.1013V6.3a.1536.1536,0,0,1-.0356.1135.1768.1768,0,0,1-.1252.0356h-.8626A.172.172,0,0,1,41.8242,6.4166Zm-.2525-2.3895a.44.44,0,0,0-.2231-.0534.3885.3885,0,0,0-.3509.208,1.4276,1.4276,0,0,0-.1252.6964,1.5263,1.5263,0,0,0,.119.7053.3859.3859,0,0,0,.3571.2114.4213.4213,0,0,0,.2976-.11.3689.3689,0,0,0,.1185-.2825V4.2A.7888.7888,0,0,0,41.5717,4.0271Z" transform="translate(-0.2653 -0.0892)"/><path class="cls-1" d="M44.1269,6.5078a.9694.9694,0,0,1-.693-.2436.8194.8194,0,0,1-.2586-.6241.92.92,0,0,1,.223-.6107,1.4447,1.4447,0,0,1,.6363-.41,2.9193,2.9193,0,0,1,.9673-.1457h.0411c.06,0,.09-.0278.09-.0834V4.2885a.3078.3078,0,0,0-.351-.3448.5738.5738,0,0,0-.2681.0656.4558.4558,0,0,0-.1963.2147.1207.1207,0,0,1-.0384.0556.0954.0954,0,0,1-.0567.0156.2455.2455,0,0,1-.0651-.0067l-.78-.1546a.0707.0707,0,0,1-.0651-.0767.3938.3938,0,0,1,.0233-.1135q.25-.7076,1.5-.7075a1.8106,1.8106,0,0,1,1.1035.2558.87.87,0,0,1,.3243.7253V6.2887a.2154.2154,0,0,1-.0267.1246.1339.1339,0,0,1-.11.0356h-.8149a.1125.1125,0,0,1-.104-.0534.446.446,0,0,1-.0506-.1546L45.15,6.1986c-.0039-.0389-.02-.059-.0478-.059a.1882.1882,0,0,0-.113.059A1.2975,1.2975,0,0,1,44.1269,6.5078Zm.9879-1.475a.0871.0871,0,0,0-.0718-.0234H45.02a.9211.9211,0,0,0-.277.0534.8562.8562,0,0,0-.2887.158.322.322,0,0,0-.1246.258.2543.2543,0,0,0,.089.2025.3723.3723,0,0,0,.25.0779.496.496,0,0,0,.3271-.1135.3033.3033,0,0,0,.1368-.2147V5.1162A.1443.1443,0,0,0,45.1148,5.0328Z" transform="translate(-0.2653 -0.0892)"/><path class="cls-1" d="M46.5281,7.4067A.1.1,0,0,1,46.46,7.3V6.6925a.1015.1015,0,0,1,.039-.0767.182.182,0,0,1,.1279-.0356h.4222a.4992.4992,0,0,0,.2859-.0779.2185.2185,0,0,0,.1129-.178.187.187,0,0,0-.0123-.06L46.2812,3.4676a.1861.1861,0,0,1-.0117-.0534.109.109,0,0,1,.0356-.0857.1256.1256,0,0,1,.089-.0334H47.4a.1483.1483,0,0,1,.0951.0334.1723.1723,0,0,1,.06.0857l.5061,1.4283c.0117.04.0273.059.0473.059s.0378-.0189.0534-.059l.5117-1.4283a.17.17,0,0,1,.1552-.1191h.6663a.1046.1046,0,0,1,.0829.0334.1114.1114,0,0,1,.03.08.1952.1952,0,0,1-.0117.059l-1.16,2.7966a2.9967,2.9967,0,0,1-.4138.7465,1.0185,1.0185,0,0,1-.4817.3337,2.5858,2.5858,0,0,1-.747.0868A.9578.9578,0,0,1,46.5281,7.4067Z" transform="translate(-0.2653 -0.0892)"/><path class="cls-2" d="M30.66,7.1664a.1572.1572,0,0,1,.0506.1224.3052.3052,0,0,1-.0122.0712l-1.2076,4.0281a.2451.2451,0,0,1-.0773.1135.2283.2283,0,0,1-.1368.0356h-.821a.198.198,0,0,1-.2147-.1491l-.6185-2.0936c-.0117-.0523-.0262-.0779-.0417-.0779-.0117,0-.0295.03-.0534.089l-.613,2.0825a.2045.2045,0,0,1-.0745.1135.2414.2414,0,0,1-.14.0356h-.851a.2286.2286,0,0,1-.1369-.0356.2451.2451,0,0,1-.0773-.1135L24.4213,7.36a.3013.3013,0,0,1-.0123-.0712.1575.1575,0,0,1,.0506-.1224.21.21,0,0,1,.14-.0445h.9817a.2258.2258,0,0,1,.1307.03.1635.1635,0,0,1,.06.0957l.6307,2.2071c.0117.0478.0256.0712.0417.0712.0117,0,.0217-.0156.03-.0478l.6252-2.23c.02-.0834.0829-.1257.19-.1257h.8332a.2268.2268,0,0,1,.1307.03.1659.1659,0,0,1,.06.0957l.6546,2.2605a.0558.0558,0,0,0,.0356.0423c.0156.0033.0256-.0067.0295-.03l.6068-2.2727c.02-.0834.0835-.1257.1908-.1257h.69A.2092.2092,0,0,1,30.66,7.1664Z" transform="translate(-0.2653 -0.0892)"/><path class="cls-2" d="M30.9184,11.5049a.1578.1578,0,0,1-.0356-.1168V7.2587a.155.155,0,0,1,.03-.1012.1027.1027,0,0,1,.0834-.0356h.9517c.0712,0,.1073.0423.1073.1257V8.7283c0,.0322.0095.0478.0295.0478a.07.07,0,0,0,.0479-.0234,1.6544,1.6544,0,0,1,.4727-.33,1.2023,1.2023,0,0,1,.4789-.0978.897.897,0,0,1,.6842.2558,1.0081,1.0081,0,0,1,.2442.7253v2.0536a.1575.1575,0,0,1-.1786.178H32.96a.1448.1448,0,0,1-.1074-.0323.1758.1758,0,0,1-.03-.1168V9.4491A.2723.2723,0,0,0,32.74,9.24a.3216.3216,0,0,0-.2264-.0768.4961.4961,0,0,0-.44.2971v1.9044a.17.17,0,0,1-.0445.1335.2345.2345,0,0,1-.1518.039h-.8393A.1786.1786,0,0,1,30.9184,11.5049Z" transform="translate(-0.2653 -0.0892)"/><path class="cls-2" d="M34.2891,12.495a.1.1,0,0,1-.0684-.1068v-.6074a.1021.1021,0,0,1,.0389-.0768.183.183,0,0,1,.128-.0356H34.81a.5.5,0,0,0,.2859-.0778.2183.2183,0,0,0,.1129-.178.1865.1865,0,0,0-.0122-.06L34.0422,8.5558a.1848.1848,0,0,1-.0117-.0534.1087.1087,0,0,1,.0356-.0856.1252.1252,0,0,1,.089-.0334h1.0056a.1478.1478,0,0,1,.0951.0334.1719.1719,0,0,1,.0595.0856l.5062,1.4284c.0117.04.0273.059.0473.059s.0378-.0189.0534-.059l.5117-1.4284a.17.17,0,0,1,.1552-.119h.6663a.1045.1045,0,0,1,.0829.0334.1118.1118,0,0,1,.03.08.1966.1966,0,0,1-.0116.0589l-1.16,2.7967a3.0018,3.0018,0,0,1-.4138.7465,1.02,1.02,0,0,1-.4817.3337,2.5858,2.5858,0,0,1-.747.0868A.9578.9578,0,0,1,34.2891,12.495Z" transform="translate(-0.2653 -0.0892)"/></g></svg>