<?xml version="1.0" encoding="iso-8859-1"?>
<!-- Generator: Adobe Illustrator 24.1.3, SVG Export Plug-In . SVG Version: 6.00 Build 0)  -->
<svg version="1.1" id="Layer_1" xmlns="http://www.w3.org/2000/svg" xmlns:xlink="http://www.w3.org/1999/xlink" x="0px" y="0px"
	 viewBox="0 0 139 78.024" style="enable-background:new 0 0 139 78.024;" xml:space="preserve">
<path style="fill:#FFFFFF;" d="M225.385,48.342c-7.183-19.498-20.679-36.034-38.342-46.978
	c-19.582-11.176-41.885-16.687-64.418-15.918c-17.543-0.286-34.979,2.776-51.375,9.021c-3.578,1.425-6.948,2.974-10.143,4.628
	c-3.18-1.644-6.53-3.184-10.095-4.601c-16.398-6.242-33.836-9.301-51.379-9.011C-22.9-15.285-45.203-9.774-64.785,1.401
	c-17.663,10.945-31.16,27.481-38.344,46.978c-0.397,1.377-0.654,2.79-0.767,4.218c-0.297,2.931,1.704,5.599,4.601,6.134
	l49.081,10.737c1.258,0.284,2.545,0.414,3.834,0.388c1.314,0.071,2.609-0.338,3.644-1.151c1.103-1.079,1.954-2.388,2.493-3.834
	c3.247-8.689,8.899-16.274,16.295-21.872c6.574-4.958,14.581-7.648,22.816-7.664c6.367-0.179,12.6,1.852,17.64,5.746
	c4.637,3.397,7.351,8.823,7.287,14.571l0.064,0.146c0.346,6.879,2.12,13.61,5.208,19.766c3.309,6.53,7.646,12.485,12.845,17.638
	c6.364,6.023,13.086,11.657,20.129,16.871c7.931,6.392,14.194,11.698,18.789,15.918c4.69,4.336,8.583,9.461,11.504,15.142
	c3.165,6.299,4.745,13.275,4.603,20.323c-0.033,2.487,1.015,4.865,2.873,6.519c1.798,1.741,4.208,2.705,6.711,2.685h40.262
	c2.73,0.136,5.385-0.912,7.286-2.877c1.924-2.298,2.886-5.252,2.685-8.243c0.197-10.681-1.691-21.297-5.56-31.254
	c-3.185-8.194-7.65-15.83-13.23-22.623c-5.109-6.005-11.627-12.843-19.554-20.513c-5.468-5.09-10.591-10.537-15.336-16.307
	c-2.998-3.755-4.623-8.422-4.605-13.228c-0.063-5.748,2.65-11.174,7.287-14.571c5.039-3.896,11.271-5.929,17.638-5.752
	c8.235,0.017,16.242,2.708,22.816,7.668c7.393,5.594,13.044,13.174,16.295,21.857c0.537,1.446,1.389,2.756,2.493,3.834
	c1.034,0.814,2.33,1.223,3.644,1.151c1.289,0.025,2.576-0.106,3.834-0.388l49.081-10.739c2.897-0.535,4.898-3.204,4.601-6.134
	C226.041,51.119,225.783,49.712,225.385,48.342z"/>
</svg>
