<svg id="Layer_1" data-name="Layer 1" xmlns="http://www.w3.org/2000/svg" viewBox="0 0 139 78.0235"><defs><style>.cls-1{fill:#fff;}</style></defs><path class="cls-1" d="M138.6632,26.5138A39.2218,39.2218,0,0,0,122.5186,6.7325,51.2005,51.2005,0,0,0,95.3938.03,58.1177,58.1177,0,0,0,73.7611,3.8283c-1.5064.6-2.9255,1.2522-4.2709,1.9487C68.1513,5.0846,66.74,4.4364,65.24,3.84A58.118,58.118,0,0,0,43.6054.0453,51.2084,51.2084,0,0,0,16.4806,6.748,39.2254,39.2254,0,0,0,.3351,26.5293a8.9288,8.9288,0,0,0-.3228,1.7762A2.3826,2.3826,0,0,0,1.95,30.8885L22.616,35.41a6.7311,6.7311,0,0,0,1.6144.1635,2.2837,2.2837,0,0,0,1.5343-.4848,4.4148,4.4148,0,0,0,1.0495-1.6143,20.5906,20.5906,0,0,1,6.8613-9.21,16.0079,16.0079,0,0,1,9.607-3.2272,11.6158,11.6158,0,0,1,7.4278,2.42,7.5029,7.5029,0,0,1,3.0685,6.1354l.027.0613a20.9026,20.9026,0,0,0,2.1931,8.3228,28.7518,28.7518,0,0,0,5.4088,7.427,91.7574,91.7574,0,0,0,8.4757,7.1041q5.009,4.0371,7.9116,6.7027a23.0144,23.0144,0,0,1,4.844,6.3758,18.2449,18.2449,0,0,1,1.9381,8.5574,3.61,3.61,0,0,0,1.21,2.7449,4.0154,4.0154,0,0,0,2.8258,1.13h16.953a3.99,3.99,0,0,0,3.0677-1.2114,4.8933,4.8933,0,0,0,1.13-3.4707,34.5765,34.5765,0,0,0-2.341-13.16,34.9765,34.9765,0,0,0-5.5707-9.5261q-3.2271-3.7928-8.2337-8.6375a70.9821,70.9821,0,0,1-6.4575-6.8662,8.8719,8.8719,0,0,1-1.9389-5.57,7.5033,7.5033,0,0,1,3.0685-6.1355,11.6149,11.6149,0,0,1,7.427-2.4219,16.0065,16.0065,0,0,1,9.607,3.2287,20.6,20.6,0,0,1,6.8613,9.2032,4.3984,4.3984,0,0,0,1.0495,1.6144,2.2794,2.2794,0,0,0,1.5343.4847,6.7731,6.7731,0,0,0,1.6144-.1635l20.6665-4.5219a2.3819,2.3819,0,0,0,1.9372-2.583A8.9384,8.9384,0,0,0,138.6632,26.5138Z"/></svg>