<svg id="Layer_1" data-name="Layer 1" xmlns="http://www.w3.org/2000/svg" viewBox="0 0 139 115.7754"><defs><style>.cls-1{fill:#fff;}.cls-2{fill:#fdda23;}</style></defs><path class="cls-1" d="M143.6632,36.144a39.2224,39.2224,0,0,0-16.1446-19.7812A51.201,51.201,0,0,0,100.3938,9.66a58.1173,58.1173,0,0,0-21.6327,3.7985c-1.5065.6-2.9255,1.2522-4.271,1.9487-1.3389-.6924-2.75-1.3406-4.2505-1.9373A58.1176,58.1176,0,0,0,48.6053,9.6756a51.2086,51.2086,0,0,0-27.1248,6.7027A39.2252,39.2252,0,0,0,5.3351,36.16a8.9361,8.9361,0,0,0-.3229,1.7762A2.3828,2.3828,0,0,0,6.95,40.5188L27.616,45.04a6.73,6.73,0,0,0,1.6143.1635,2.2837,2.2837,0,0,0,1.5343-.4848,4.4138,4.4138,0,0,0,1.05-1.6143,20.59,20.59,0,0,1,6.8613-9.21,16.0076,16.0076,0,0,1,9.607-3.2271A11.6158,11.6158,0,0,1,55.71,33.0869a7.5031,7.5031,0,0,1,3.0686,6.1355l.0269.0613a20.9042,20.9042,0,0,0,2.1931,8.3228,28.7581,28.7581,0,0,0,5.4088,7.427,91.7706,91.7706,0,0,0,8.4757,7.1041q5.0091,4.0371,7.9117,6.7027a23.014,23.014,0,0,1,4.8439,6.3758,18.2425,18.2425,0,0,1,1.9381,8.5574,3.61,3.61,0,0,0,1.21,2.7449,4.0152,4.0152,0,0,0,2.8258,1.13h16.953a3.99,3.99,0,0,0,3.0677-1.2114,4.8942,4.8942,0,0,0,1.13-3.4707,34.5785,34.5785,0,0,0-2.3411-13.16,34.9762,34.9762,0,0,0-5.5706-9.5261q-3.2271-3.7927-8.2338-8.6375a70.9944,70.9944,0,0,1-6.4575-6.8662,8.8724,8.8724,0,0,1-1.9389-5.57,7.5031,7.5031,0,0,1,3.0686-6.1355,11.6155,11.6155,0,0,1,7.4269-2.422,16.0068,16.0068,0,0,1,9.607,3.2288,20.5984,20.5984,0,0,1,6.8613,9.2032,4.3986,4.3986,0,0,0,1.05,1.6144,2.2794,2.2794,0,0,0,1.5343.4847,6.7717,6.7717,0,0,0,1.6143-.1635L142.05,40.4951a2.382,2.382,0,0,0,1.9373-2.583A8.9407,8.9407,0,0,0,143.6632,36.144Z" transform="translate(-5 -9.6303)"/><circle class="cls-2" cx="97.4635" cy="103.1799" r="12.5954"/></svg>